<?xml version="1.0" encoding="utf-8"?>
<!-- Generator: Adobe Illustrator 22.0.1, SVG Export Plug-In . SVG Version: 6.00 Build 0)  -->
<svg version="1.1" id="Layer_1" xmlns="http://www.w3.org/2000/svg" xmlns:xlink="http://www.w3.org/1999/xlink" x="0px" y="0px"
	 viewBox="0 0 379.3 262.6" style="enable-background:new 0 0 379.3 262.6;" xml:space="preserve">
<style type="text/css">
	.st0{fill:#00BFD8;fill-opacity:0.94;}
	.st1{fill-opacity:0;stroke:#FFFFFF;stroke-width:2.5;}
</style>
<g>
	<g>
		<g>
			<path id="b3zrMwKsZm" class="st0" d="M268.2,185.2l0.7,0l0.7,0l0.7,0l0.7,0l0.7,0l0.7,0.1l0.7,0.1l0.7,0.1l0.7,0.1l0.7,0.1l0.3,0
				l0.2,0l0.5,0.1l0.5,0.1l0.5,0.1l0.5,0.1l0.5,0.1l0.5,0.1l0.5,0.1l0.5,0.1l0.5,0.1l0.5,0.1l0.5,0.1l0.5,0.1l0.5,0.2l0.5,0.2
				l0.5,0.2l0.5,0.2l0.5,0.2l0.5,0.2l0.5,0.2l0.5,0.2l0.5,0.2l0.5,0.2l0.5,0.2l0.5,0.2l0.5,0.2l0.5,0.2l0.5,0.2l0.5,0.2l0.5,0.2
				l0.5,0.2l0.5,0.2l0.5,0.2l0.5,0.2l0.5,0.2l0.5,0.2l0,0l0.6,0.3l0.6,0.3l0.6,0.4l0.6,0.4l0.6,0.4l0.6,0.4l0.6,0.4l0.6,0.4l0.6,0.4
				l0.6,0.4l0.5,0.4l0.5,0.4l0.5,0.4l0.5,0.4l0.5,0.4l0.5,0.5l0.5,0.5l0.5,0.5l0.5,0.5l0.5,0.5l0.5,0.5l0.5,0.5l0.5,0.5l0.5,0.5
				l0.5,0.5l0.4,0.5l0.4,0.5l0.4,0.5l0.4,0.5l0.4,0.5l0.4,0.6l0.4,0.6l0.4,0.6l0.4,0.6l0.4,0.6l0.4,0.6l0.4,0.6l0.4,0.6l0.3,0.6
				l0.3,0.6l0.8,1.5l10.3,16.7l0.4,0.6l0.6,0.8l0.6,0.8l0.6,0.8l0.6,0.8l0.6,0.8l0.6,0.8l0.6,0.7l0.6,0.7l0.7,0.7l0.7,0.7l0.7,0.7
				l0.7,0.7l0.7,0.7l0.7,0.7l0.7,0.7l0.7,0.7l0.7,0.6l0.7,0.6l0.8,0.6l0.8,0.6l0.8,0.6l0.8,0.6l0.8,0.6l0.8,0.6l0.8,0.6l0.8,0.5
				l0.8,0.5l0.8,0.5l0.8,0.5l0.8,0.5l0.9,0.5l0.9,0.5l0.9,0.5l0.9,0.4l0.9,0.4l0.9,0.4l0.9,0.4l0.9,0.4l0.9,0.4l0.9,0.4l11.1,4.3
				l-13.9,1.5l-0.6,0.1l-0.6,0l-0.6,0l-0.6,0l-0.6,0l-0.6,0l-0.6,0l-0.6,0l-0.6,0l-0.6,0l-0.6,0l-0.6,0h-0.6l-0.6,0h-0.6l-0.6,0
				l-0.6,0l-0.6,0l-0.6,0l-0.6,0l-0.6,0l-0.6,0l-0.6,0l-0.6,0l-0.6,0l-0.6-0.1l-0.6-0.1l-0.6-0.1l-0.6-0.1l-0.5-0.1l-0.6-0.1
				l-0.6-0.1l-0.6-0.1l-0.6-0.1l-0.5-0.1l-0.6-0.1l-0.4-0.1l-0.3-0.1l-0.5-0.1l-0.5-0.1l-0.5-0.1l-0.5-0.1l-0.5-0.1l-0.5-0.1
				l-0.5-0.1l-0.5-0.2l-0.5-0.2l-0.5-0.2l-0.5-0.2l-0.5-0.2l-0.5-0.2l-0.5-0.2l-0.5-0.2l-0.5-0.2l-0.4-0.2l-0.5-0.2l-0.4-0.2
				l-0.4-0.2l-0.4-0.2l-0.4-0.2l-0.4-0.2l-0.4-0.2l-0.4-0.2l-0.4-0.2l-0.4-0.2l-0.4-0.2l-0.4-0.2l-0.4-0.2l-0.4-0.2l-0.4-0.2
				l-0.4-0.2l-0.4-0.2l-0.4-0.3l-0.4-0.3l-0.6-0.4l-0.6-0.4l-0.6-0.4l-0.6-0.4l-0.5-0.4l-0.5-0.4l-0.5-0.4l-0.5-0.4l-0.5-0.4
				l-0.5-0.4l-0.5-0.4l-0.5-0.4l-0.5-0.4l-0.5-0.4l-0.5-0.5l-0.5-0.5l-0.5-0.5l-0.5-0.5l-0.5-0.5l-0.5-0.5l-0.4-0.5l-0.4-0.5
				l-0.4-0.5l-0.4-0.5l-0.4-0.5l-0.4-0.5l-0.4-0.5l-0.4-0.5l-0.4-0.5l-0.4-0.5l-0.4-0.6l-0.4-0.6l-0.4-0.6l-0.4-0.6l-0.3-0.6
				l-0.3-0.6l-0.3-0.6l-0.3-0.6l-0.3-0.6l-0.3-0.6l-3.5-6.8l-8.3-12.5l-0.1-0.1l-0.1-0.1l-0.1-0.1l-0.1-0.1l-0.1-0.1l-0.1-0.1
				l-0.1-0.1l-0.1-0.1l-0.1-0.1l-0.1-0.1l-0.1-0.1l-0.1-0.1l-0.1-0.1l-0.1-0.1l-0.1-0.1l-0.1-0.1l-0.1-0.1l-0.1-0.1l-0.1-0.1
				l-0.1-0.1l-0.1-0.1l-0.1-0.1l-0.1-0.1l-0.1-0.1l-0.1-0.1l-0.1-0.1l-0.1-0.1l-0.1-0.1l-0.1-0.1l-0.1-0.1l-0.1-0.1l-0.1-0.1
				l-0.1-0.1l-0.1-0.1l-0.1-0.1l-0.1-0.1l-0.1-0.1l-0.1-0.1l-0.1-0.1l-0.1-0.1l-0.6-0.7l-0.6-0.7l-0.6-0.6l-0.6-0.6l-0.7-0.6
				l-0.7-0.6l-0.7-0.6l-0.7-0.6l-0.7-0.6l-0.7-0.6l-0.7-0.6l-0.7-0.6l-0.7-0.5l-0.7-0.5l-0.7-0.5l-0.7-0.5l-0.7-0.5l-0.8-0.5
				l-0.8-0.5l-0.8-0.5l-0.8-0.5l-0.8-0.4l-0.8-0.4l-0.8-0.4l-0.8-0.4l-0.8-0.4l-0.8-0.4l-0.8-0.4l-0.8-0.4l-0.8-0.3l-0.8-0.3
				l-0.8-0.3l-0.9-0.3l-0.9-0.3l-0.9-0.3l-0.9-0.3l-0.9-0.3l-0.9-0.2l-0.9-0.2l-0.9-0.2l-5.2-1.2l4.8-1l0.7-0.1l0.7-0.1l0.7-0.1
				l0.7-0.1l0.7-0.1l0.7-0.1l0.7-0.1l0.7-0.1l0.7-0.1l0.7-0.1l0.7-0.1l0.7-0.1l0.7-0.1l0.7-0.1l0.7-0.1l0.7,0l0.7,0l0.7,0l0.7,0
				l0.7,0l0.7,0l0.7,0h0.7l0.7,0l0.7,0l0,0L268.2,185.2z M330.6,258.3l0.1,0l0.2,0l0.5,0.1l0.5,0.1l0.5,0.1L329,258l0.5,0.1l0.5,0.1
				l0,0L330.6,258.3z M42.3,232.9l1.1,0.5l1,0.6l0.9,0.7l0.8,0.8l0.7,0.9l0.6,1l0.5,1.1l0.4,1.1l0.3,1.2l0.1,1.2l0,1.3l-0.1,1.7
				l-0.1,1.1l-0.2,1.1l-0.3,1l-0.4,1l-0.5,0.9l-0.6,0.8l-0.7,0.8l-0.8,0.7l-0.8,0.6l-0.9,0.5l-0.9,0.5l-1,0.4l-1,0.3l-1.1,0.2
				l-1.1,0l-1.2-0.1l-1.2-0.2l-1.1-0.3l-1.1-0.4l-1-0.5l-1-0.6l-0.9-0.7l-0.8-0.8l-0.7-0.9l-0.6-1l-0.5-1l-0.4-1.1l-0.3-1.1L27,245
				l-0.1-1.2v-1.6l0.1-1l0.1-1l0.2-1l0.3-0.9l0.4-0.9l0.5-0.8l0.6-0.8l0.6-0.7l0.7-0.6l0.8-0.6l0.8-0.5l0.9-0.4l0.9-0.3l1-0.2l1-0.1
				l1.5-0.1l1.3,0l1.2,0.1l1.2,0.3l0,0L42.3,232.9z M50.5,205.9l0.7,0l0.7,0l0.7,0l0.7,0.1l0.7,0.1l0.7,0.1l0.7,0.1l0.7,0.1l0.7,0.1
				l0.7,0.1l0.7,0.1l0.7,0.1l0.7,0.2l0.7,0.2l0.7,0.2l0.6,0.2l0.7,0.2l0.6,0.2l0.6,0.2l0.6,0.2l0.6,0.2l0.6,0.2l0.6,0.2l0.6,0.3
				l0.6,0.3l0.6,0.3l0.6,0.3l0.6,0.3l0.6,0.3l0.6,0.3l0.6,0.3l0.6,0.3l1.5,0.8l17.6,8.6l0.7,0.3l0.9,0.4l0.9,0.4l0.9,0.4l0.9,0.3
				l0.9,0.3l0.9,0.3l0.9,0.3l0.9,0.3l0.9,0.3l0.9,0.2l1,0.2l0.9,0.2l1,0.2l1,0.2l1,0.2l1,0.2l1,0.1l1,0.1l1,0.1l1,0.1l1,0.1l1,0.1
				l1,0.1l1,0l1,0l1,0l1,0l1,0l1,0l1,0l1,0l1-0.1l1-0.1l1-0.1l1-0.1l1-0.1l1-0.1l1-0.2l1-0.2l1-0.2l11.7-2.3l-11,8.7l-0.4,0.3
				l-0.4,0.3l-0.4,0.3l-0.5,0.3l-0.4,0.3l-0.5,0.3l-0.5,0.3l-0.5,0.3l-0.5,0.3l-0.5,0.3l-0.5,0.3l-0.5,0.3l-0.5,0.3l-0.5,0.3
				l-0.5,0.3l-0.5,0.3l-0.5,0.3l-0.5,0.3l-0.5,0.3l-0.5,0.3l-0.5,0.3l-0.5,0.3l-0.5,0.3l-0.5,0.3l-0.5,0.2l-0.5,0.2l-0.5,0.2
				L117,240l-0.5,0.2l-0.5,0.2l-0.5,0.2l-0.5,0.2l-0.5,0.2l-0.5,0.2l-0.5,0.2l-0.5,0.2l-0.4,0.1l-0.3,0.1l-0.5,0.1l-0.5,0.1
				l-0.5,0.1l-0.5,0.1l-0.5,0.1l-0.5,0.1L109,243l-0.5,0.1l-0.5,0.1l-0.5,0.1l-0.5,0.1l-0.5,0.1l-0.5,0.1l-0.5,0.1l-0.5,0.1
				l-0.5,0.1l-0.5,0.1l-0.5,0.1l-0.5,0.1l-0.5,0.1l-0.5,0.1l-0.5,0.1l-0.5,0.1l-0.5,0l-0.5,0l-0.5,0l-0.5,0l-0.5,0l-0.5,0l-0.5,0
				l-0.5,0l-0.5,0l-0.5,0l-0.5,0h-0.5l-0.5,0l-0.7,0l-0.7,0l-0.7,0l-0.7,0l-0.7,0l-0.7,0l-0.7-0.1l-0.7-0.1l-0.6-0.1l-0.7-0.1
				l-0.7-0.1l-0.6-0.1l-0.6-0.1l-0.6-0.1l-0.6-0.1l-0.6-0.1l-0.6-0.1l-0.6-0.1l-0.6-0.2l-0.6-0.2l-0.6-0.2l-0.6-0.2l-0.6-0.2
				l-0.6-0.2l-0.6-0.2l-0.6-0.2l-0.6-0.2l-0.6-0.2l-0.6-0.3l-0.6-0.2l-0.6-0.3l-0.6-0.3l-0.6-0.3l-0.6-0.3l-0.6-0.3l-0.6-0.3
				l-0.6-0.3l-0.6-0.3l-0.6-0.3l-0.6-0.3l-6.5-3.9l-13.7-6.2l-0.2-0.1l-0.2-0.1l-0.2-0.1l-0.2-0.1l-0.2-0.1l-0.2-0.1l-0.2-0.1
				l-0.2-0.1l-0.2-0.1l-0.2-0.1l-0.2-0.1l-0.2-0.1l-0.2-0.1l-0.2-0.1l-0.2-0.1l-0.2-0.1l-0.2-0.1l-0.2-0.1l-0.2-0.1l-0.2-0.1
				l-0.2-0.1l-0.2-0.1l-0.2-0.1l-0.2-0.1l-0.2-0.1l-0.2,0l-0.2-0.1l-0.2-0.1l-0.2,0l-0.2-0.1l-0.2,0l-0.2,0l-0.2-0.1l-0.2,0l-0.2,0
				l-0.2,0l-0.2,0l-0.2,0l-0.2,0l-0.2,0L42,225l-0.9-0.2l-0.9-0.2l-0.9-0.2l-0.9-0.2l-0.9-0.2l-0.9-0.2l-0.9-0.1l-0.9-0.1l-0.9-0.1
				l-0.9-0.1l-0.9-0.1l-0.9-0.1l-0.9-0.1l-0.9,0l-0.9,0l-0.9,0l-0.9,0l-0.9,0l-0.9,0l-0.9,0l-0.9,0l-0.9,0.1l-0.9,0.1l-0.9,0.1
				l-0.9,0.1l-0.9,0.1l-0.9,0.1l-0.9,0.1l-0.9,0.2l-0.9,0.2l-0.9,0.2l-0.9,0.2l-0.9,0.2l-0.9,0.2l-0.9,0.2l-0.9,0.3L9,225.8
				l-0.9,0.3l-0.9,0.3l-5.1,1.7l3.5-3.4l0.5-0.5l0.5-0.5l0.5-0.5l0.5-0.5l0.5-0.5l0.5-0.5l0.6-0.5l0.6-0.5l0.6-0.5l0.6-0.5l0.6-0.5
				l0.6-0.4l0.6-0.4l0.6-0.4l0.6-0.4l0.6-0.4l0.6-0.4l0.6-0.4l0.6-0.4l0.6-0.4l0.6-0.4l0.6-0.4l0.6-0.4l0.6-0.4l0.6-0.4l0.6-0.4
				l0.6-0.4l0.6-0.4l0.6-0.3l0.6-0.3l0.6-0.3l0.6-0.3l0.6-0.3l0.6-0.3l0.6-0.3L27,210l0.3-0.1l0.2-0.1l0.5-0.2l0.5-0.2l0.5-0.2
				l0.5-0.2l0.5-0.2l0.5-0.2l0.5-0.2l0.5-0.1l0.5-0.1l0.5-0.1l0.5-0.1l0.5-0.1l0.5-0.1l0.5-0.1l0.5-0.1l0.5-0.1l0.5-0.1l0.5-0.1
				l0.5-0.1l0.5-0.1l0.5-0.1l0.5-0.1l0.5-0.1l0.5-0.1l0.5-0.1l0.5-0.1l0.5-0.1l0.5-0.1l0.5-0.1l0.5-0.1l0.5-0.1l0.5,0l0.5,0l0.5,0
				l0.5,0H45l0.7,0l0.7,0l0.7,0l0.7,0h0.7h0.7l0.7,0l0,0L50.5,205.9z M111.8,242.2l0.5-0.2l0.1,0l0.2-0.1l0.5-0.1l0.5-0.2l0.5-0.2
				l-3.3,1.2l0.5-0.2l0,0L111.8,242.2z M348.1,213.6l1.1,0.5l1,0.6l0.9,0.7l0.8,0.8l0.7,0.9l0.6,1l0.5,1.1l0.4,1.1l0.3,1.2l0.1,1.2
				l0,1.3l-0.1,1.7l-0.1,1.1l-0.2,1.1l-0.3,1l-0.4,1l-0.5,0.9l-0.6,0.8l-0.7,0.8l-0.8,0.7l-0.8,0.6l-0.9,0.5l-0.9,0.5l-1,0.4l-1,0.3
				l-1.1,0.2l-1.1,0l-1.2-0.1l-1.2-0.2l-1.1-0.3l-1.1-0.4l-1-0.5l-1-0.6l-0.9-0.7l-0.8-0.8l-0.7-0.9l-0.6-1l-0.5-1l-0.4-1.1
				l-0.3-1.1l-0.2-1.2l-0.1-1.2v-1.6l0.1-1l0.1-1l0.2-1l0.3-0.9l0.4-0.9l0.5-0.8l0.6-0.8l0.6-0.7l0.7-0.6l0.8-0.6l0.8-0.5l0.9-0.4
				l0.9-0.3l1-0.2l1-0.1l1.5-0.1l1.3,0l1.2,0.1l1.2,0.3l0,0L348.1,213.6z M27.7,209.6l-0.4,0.2l-0.2,0.1l-0.5,0.2l-0.5,0.2l-0.5,0.2
				l-0.5,0.2l4.5-1.9l-0.7,0.3l-0.7,0.3l0,0L27.7,209.6z M34.3,123.4l0.7,0l0.7,0l0.7,0l0.7,0l0.7,0.1l0.7,0.1l0.7,0.1l0.7,0.1
				l0.7,0.1l0.3,0l0.2,0l0.5,0.1l0.5,0.1l0.5,0.1l0.5,0.1l0.5,0.1l0.5,0.1l0.5,0.1l0.5,0.1l0.5,0.1l0.5,0.1l0.5,0.1l0.5,0.1l0.5,0.1
				l0.5,0.1l0.5,0.2l0.5,0.2l0.5,0.2l0.5,0.2l0.5,0.2l0.5,0.2l0.5,0.2l0.5,0.2l0.5,0.2l0.5,0.2l0.5,0.2l0.5,0.2l0.5,0.2l0.5,0.2
				l0.5,0.2l0.5,0.2l0.5,0.2l0.5,0.2l0.5,0.2l0.5,0.2l0.5,0.2l0,0l0.6,0.3l0.6,0.3l0.6,0.3l0.6,0.3l0.6,0.4l0.6,0.4l0.6,0.4l0.6,0.4
				l0.6,0.4l0.6,0.4l0.6,0.4l0.6,0.4l0.5,0.4l0.5,0.4l0.5,0.4l0.5,0.4l0.5,0.5l0.5,0.5l0.5,0.5l0.5,0.5l0.5,0.5l0.5,0.5l0.5,0.5
				l0.5,0.5l0.5,0.5l0.5,0.5l0.4,0.5l0.4,0.5l0.4,0.5l0.4,0.5l0.4,0.6l0.4,0.5l0.4,0.6l0.4,0.6l0.4,0.6l0.4,0.6l0.4,0.6l0.4,0.6
				l0.4,0.6l0.3,0.6l0.8,1.5L89,166.7l0.4,0.6l0.6,0.8l0.6,0.8l0.6,0.8l0.6,0.8l0.6,0.8l0.6,0.7l0.6,0.7l0.6,0.7l0.7,0.7l0.7,0.7
				l0.7,0.7l0.7,0.7l0.7,0.7l0.7,0.7l0.7,0.7l0.7,0.6l0.7,0.6l0.7,0.6l0.8,0.6l0.8,0.6l0.8,0.6l0.8,0.6l0.8,0.6l0.8,0.6l0.8,0.5
				l0.8,0.5l0.8,0.5l0.8,0.5l0.8,0.5l0.8,0.5l0.9,0.5l0.9,0.5l0.9,0.4l0.9,0.4l0.9,0.4l0.9,0.4l0.9,0.4l0.9,0.4l0.9,0.4l0.9,0.4
				l11.2,4.2l-13.9,1.6l-0.6,0.1l-0.6,0.1l-0.6,0l-0.6,0l-0.6,0l-0.6,0l-0.6,0l-0.6,0l-0.6,0l-0.6,0l-0.6,0l-0.6,0l-0.6,0l-0.6,0
				l-0.6,0h-0.6l-0.6,0l-0.6,0l-0.6,0l-0.6,0l-0.6,0l-0.6,0l-0.6,0l-0.6,0l-0.6,0l-0.6,0l-0.6-0.1l-0.6-0.1l-0.6-0.1l-0.6-0.1
				l-0.6-0.1l-0.6-0.1l-0.5-0.1l-0.6-0.1L98,196l-0.6-0.1l-0.4-0.1l-0.3-0.1l-0.5-0.1l-0.5-0.1l-0.5-0.1l-0.5-0.1l-0.5-0.1l-0.5-0.1
				l-0.5-0.1l-0.5-0.1l-0.5-0.1l-0.5-0.2l-0.5-0.2l-0.5-0.2l-0.5-0.2l-0.5-0.2l-0.5-0.2l-0.5-0.2l-0.5-0.2l-0.4-0.2l-0.5-0.2
				l-0.4-0.2l-0.4-0.2l-0.4-0.2l-0.4-0.2l-0.4-0.2l-0.4-0.2l-0.4-0.2l-0.4-0.2L84,191l-0.4-0.2l-0.4-0.2l-0.4-0.2l-0.4-0.2l-0.4-0.2
				l-0.4-0.2l-0.4-0.2l-0.4-0.3l-0.6-0.3l-0.6-0.4L79,188l-0.6-0.4l-0.5-0.4l-0.5-0.4l-0.5-0.4l-0.5-0.4l-0.5-0.4l-0.5-0.4l-0.5-0.4
				l-0.5-0.4l-0.5-0.4l-0.5-0.4l-0.5-0.4l-0.5-0.5l-0.5-0.5l-0.5-0.5l-0.5-0.5l-0.5-0.5l-0.5-0.5l-0.4-0.5l-0.4-0.5l-0.4-0.5
				l-0.4-0.5l-0.4-0.5l-0.4-0.5l-0.4-0.5l-0.4-0.5l-0.4-0.5l-0.4-0.5l-0.4-0.5l-0.4-0.6l-0.4-0.6l-0.4-0.6l-0.3-0.6l-0.3-0.6
				l-0.3-0.6l-0.3-0.6l-0.3-0.6l-3.5-6.7l-8.4-12.4l-0.1-0.1l-0.1-0.1l-0.1-0.1l-0.1-0.1l-0.1-0.1l-0.1-0.1l-0.1-0.1l-0.1-0.1
				l-0.1-0.1l-0.1-0.1l-0.1-0.1l-0.1-0.1l-0.1-0.1l-0.1-0.1l-0.1-0.1l-0.1-0.1l-0.1-0.1l-0.1-0.1l-0.1-0.1l-0.1-0.1l-0.1-0.1
				l-0.1-0.1l-0.1-0.1l-0.1-0.1l-0.1-0.1l-0.1-0.1L48,147l-0.1-0.1l-0.1-0.1l-0.1-0.1l-0.1-0.1l-0.1-0.1l-0.1-0.1l-0.1-0.1l-0.1-0.1
				l-0.1-0.1l-0.1-0.1l-0.1-0.1l-0.1-0.1l-0.1-0.1l-0.6-0.7l-0.6-0.6l-0.6-0.6l-0.6-0.6l-0.7-0.6l-0.7-0.6l-0.7-0.6l-0.7-0.6
				l-0.7-0.6l-0.7-0.6l-0.7-0.6l-0.7-0.5l-0.7-0.5l-0.7-0.5l-0.7-0.5l-0.8-0.5l-0.8-0.5l-0.8-0.5l-0.8-0.5l-0.8-0.5l-0.8-0.4
				l-0.8-0.4l-0.8-0.4l-0.8-0.4l-0.8-0.4l-0.8-0.4l-0.8-0.4l-0.8-0.4l-0.8-0.3l-0.8-0.3l-0.8-0.3l-0.9-0.3l-0.9-0.3l-0.9-0.3
				l-0.9-0.3l-0.9-0.3l-0.9-0.2l-0.9-0.2l-0.9-0.2l-0.9-0.2l-5.2-1.2l4.8-1.1l0.7-0.2l0.7-0.1l0.7-0.1l0.7-0.1l0.7-0.1l0.7-0.1
				l0.7-0.1l0.7-0.1l0.7-0.1l0.7-0.1l0.7-0.1l0.7-0.1l0.7-0.1l0.7-0.1l0.7-0.1l0.7-0.1l0.7,0l0.7,0l0.7,0l0.7,0l0.7,0l0.7,0l0.7,0
				h0.7h0.7l0.7,0l0,0L34.3,123.4z M96.9,195.8l0.1,0l0.2,0l0.5,0.1l0.5,0.1l0.5,0.1l-3.4-0.7l0.5,0.1l0.5,0.1l0,0L96.9,195.8z
				 M276.9,186l-0.7-0.1l-0.4,0l-0.3,0l-0.5-0.1l-0.5-0.1l-0.5-0.1l-0.5-0.1l4.8,0.8l-0.7-0.1l0,0L276.9,186z M284.7,137l0.7,0
				l0.7,0l0.7,0.1l0.7,0.1l0.7,0.1l0.7,0.1l0.7,0.1l0.7,0.1l0.7,0.1l0.7,0.1l0.7,0.1l0.7,0.1l0.7,0.2l0.7,0.2l0.7,0.2l0.6,0.2
				l0.7,0.2l0.6,0.2l0.6,0.2l0.6,0.2l0.6,0.2l0.6,0.2l0.6,0.2l0.6,0.3l0.6,0.3l0.6,0.3l0.6,0.3l0.6,0.3l0.6,0.3l0.6,0.3l0.6,0.3
				l0.6,0.3l1.5,0.8l17.6,8.6l0.7,0.3l0.9,0.4l0.9,0.4l0.9,0.3l0.9,0.3l0.9,0.3l0.9,0.3l0.9,0.3l0.9,0.3l0.9,0.3l0.9,0.2l1,0.2
				l0.9,0.2l1,0.2l1,0.2l1,0.2l1,0.2l1,0.1l1,0.1l1,0.1l1,0.1l1,0.1l1,0.1l1,0.1l1,0l1,0l1,0l1,0l1,0l1,0l1,0l1,0l1-0.1l1-0.1l1-0.1
				l1-0.1l1-0.1l1-0.1l1-0.2l1-0.2l1-0.2l11.7-2.3l-11,8.7l-0.4,0.3l-0.4,0.3l-0.4,0.3l-0.5,0.3l-0.4,0.3l-0.5,0.3l-0.5,0.3
				l-0.5,0.3l-0.5,0.3l-0.5,0.3l-0.5,0.3l-0.5,0.3l-0.5,0.3l-0.5,0.3l-0.5,0.3l-0.5,0.3l-0.5,0.3l-0.5,0.3l-0.5,0.3l-0.5,0.3
				l-0.5,0.3l-0.5,0.3l-0.5,0.3l-0.5,0.2l-0.5,0.3l-0.5,0.2l-0.5,0.2l-0.5,0.2l-0.5,0.2l-0.5,0.2l-0.5,0.2l-0.5,0.2l-0.5,0.2
				l-0.5,0.2l-0.5,0.2l-0.5,0.2l-0.4,0.1l-0.3,0.1l-0.5,0.1l-0.5,0.1l-0.5,0.1l-0.5,0.1l-0.5,0.1l-0.5,0.1l-0.5,0.1l-0.5,0.1
				l-0.5,0.1l-0.5,0.1l-0.5,0.1l-0.5,0.1l-0.5,0.1l-0.5,0.1l-0.5,0.1l-0.5,0.1l-0.5,0.1l-0.5,0.1l-0.5,0.1l-0.5,0.1l-0.5,0.1
				l-0.5,0.1l-0.5,0.1l-0.5,0l-0.5,0l-0.5,0l-0.5,0l-0.5,0l-0.5,0l-0.5,0l-0.5,0l-0.5,0l-0.5,0l-0.5,0h-0.5h-0.5h-0.7l-0.7,0l-0.7,0
				l-0.7,0l-0.7,0l-0.7,0l-0.7-0.1l-0.7-0.1l-0.6-0.1l-0.7-0.1l-0.7-0.1l-0.6-0.1l-0.6-0.1l-0.6-0.1l-0.6-0.1l-0.6-0.1l-0.6-0.1
				l-0.6-0.1l-0.6-0.2l-0.6-0.2l-0.6-0.2l-0.6-0.2l-0.6-0.2l-0.6-0.2L313,173l-0.6-0.2l-0.6-0.2l-0.6-0.2l-0.6-0.2l-0.6-0.3
				l-0.6-0.3l-0.6-0.3l-0.6-0.3l-0.6-0.3l-0.6-0.3l-0.6-0.3l-0.6-0.3l-0.6-0.3l-0.6-0.3l-0.6-0.3l-6.5-3.9l-13.7-6.2l-0.2-0.1
				l-0.2-0.1l-0.2-0.1l-0.2-0.1l-0.2-0.1l-0.2-0.1l-0.2-0.1l-0.2-0.1l-0.2-0.1l-0.2-0.1l-0.2-0.1l-0.2-0.1l-0.2-0.1l-0.2-0.1
				l-0.2-0.1l-0.2-0.1l-0.2-0.1l-0.2-0.1l-0.2-0.1l-0.2-0.1l-0.2-0.1l-0.2-0.1l-0.2-0.1l-0.2-0.1l-0.2-0.1l-0.2-0.1l-0.2,0l-0.2-0.1
				l-0.2,0l-0.2-0.1l-0.2,0l-0.2,0l-0.2-0.1l-0.2,0l-0.2,0l-0.2,0l-0.2,0l-0.2,0l-0.2,0l-0.2,0l-0.9-0.2l-0.9-0.2l-0.9-0.2l-0.9-0.2
				l-0.9-0.2l-0.9-0.2l-0.9-0.2l-0.9-0.1l-0.9-0.1l-0.9-0.1l-0.9-0.1l-0.9-0.1l-0.9-0.1l-0.9-0.1l-0.9,0l-0.9,0l-0.9,0l-0.9,0
				l-0.9,0l-0.9,0l-0.9,0l-0.9,0l-0.9,0.1l-0.9,0.1l-0.9,0.1l-0.9,0.1l-0.9,0.1l-0.9,0.1l-0.9,0.1l-0.9,0.2l-0.9,0.2l-0.9,0.2
				l-0.9,0.2l-0.9,0.2l-0.9,0.2l-0.9,0.2l-0.9,0.2l-0.9,0.3l-0.9,0.3l-0.9,0.3l-5.1,1.7l3.5-3.4l0.5-0.5l0.5-0.5l0.5-0.5l0.5-0.5
				l0.5-0.5l0.5-0.5l0.6-0.5l0.6-0.5l0.6-0.5l0.6-0.5l0.6-0.5l0.6-0.5l0.6-0.4l0.6-0.4l0.6-0.4l0.6-0.4l0.6-0.4l0.6-0.4l0.6-0.4
				l0.6-0.4l0.6-0.4l0.6-0.4l0.6-0.4l0.6-0.4l0.6-0.4l0.6-0.4l0.6-0.4l0.6-0.4l0.6-0.3l0.6-0.4l0.6-0.3l0.6-0.3l0.6-0.3l0.6-0.3
				l0.6-0.3l0.7-0.3l0.3-0.1l0.2-0.1l0.5-0.2l0.5-0.2l0.5-0.2l0.5-0.2l0.5-0.2l0.5-0.2l0.5-0.2l0.5-0.1l0.5-0.1l0.5-0.1l0.5-0.1
				l0.5-0.1l0.5-0.1l0.5-0.1l0.5-0.1l0.5-0.1l0.5-0.1l0.5-0.1l0.5-0.1l0.5-0.1l0.5-0.1l0.5-0.1l0.5-0.1l0.5-0.1l0.5-0.1l0.5-0.1
				l0.5-0.1l0.5-0.1l0.5-0.1l0.5,0l0.5-0.1l0.5,0l0.5,0l0.5,0l0.5,0l0.1,0l0.7,0l0.7,0l0.7,0l0.7,0h0.7h0.7l0.7,0l0,0L284.7,137z
				 M346.1,173.3l0.5-0.2l0.1-0.1l0.2-0.1l0.5-0.1l0.5-0.2l0.5-0.2l-3.3,1.2l0.5-0.2l0,0L346.1,173.3z M38.4,147.6l1.1,0.5l1,0.6
				l0.9,0.7l0.8,0.8l0.7,0.9l0.6,1l0.5,1.1l0.4,1.1l0.3,1.2l0.1,1.2l0,1.3l-0.1,1.7l-0.1,1.1l-0.2,1.1l-0.3,1l-0.4,1l-0.5,0.9
				l-0.6,0.8l-0.7,0.8l-0.8,0.7l-0.8,0.6l-0.9,0.5l-0.9,0.5l-1,0.4l-1,0.3l-1.1,0.2l-1.1,0l-1.2-0.1l-1.2-0.2l-1.1-0.3l-1.1-0.4
				l-1-0.5l-1-0.6l-0.9-0.7l-0.8-0.8l-0.7-0.9l-0.6-1l-0.5-1l-0.4-1.1l-0.3-1.1l-0.2-1.2l-0.1-1.2v-1.6l0.1-1l0.1-1l0.2-1l0.3-0.9
				l0.4-0.9l0.5-0.8l0.6-0.8l0.6-0.7l0.7-0.6l0.8-0.6l0.8-0.5l0.9-0.4l0.9-0.3l1-0.2l1-0.1l1.5-0.1l1.3,0l1.2,0.1l1.2,0.3l0,0
				L38.4,147.6z M71.6,44.9l0.7,0.2l0.7,0.2l0.7,0.2l0.7,0.3l0.7,0.3l0.7,0.3l0.7,0.3l0.7,0.3l0.7,0.3l0.7,0.3l0.7,0.3l0.7,0.3
				l0.7,0.3l0.6,0.3l0.6,0.3l0.6,0.3l0.6,0.3l0.6,0.3l0.6,0.3l0.6,0.4l0.6,0.4l0.6,0.4l0.6,0.4l0.6,0.4l0.6,0.4l0.6,0.4l0.6,0.4
				l0.6,0.4l0.6,0.4l0.6,0.4l0.6,0.4l0.6,0.4l0.6,0.4l0.6,0.4l0.3,0.2l0.2,0.2l0.4,0.3l0.4,0.3l0.4,0.3l0.4,0.4l0.4,0.3l0.4,0.4
				l0.4,0.4l0.4,0.4l0.4,0.4l0.4,0.4l0.4,0.4l0.3,0.4l0.3,0.4l0.3,0.4l0.3,0.4l0.3,0.4l0.3,0.4l0.3,0.4l0.3,0.4l0.3,0.4l0.3,0.4
				l0.3,0.4l0.3,0.4l0.3,0.4l0.3,0.4l0.3,0.4l0.3,0.4l0.3,0.4l0.3,0.4l0.3,0.4l0.3,0.4l0.3,0.4l0.3,0.4l0.3,0.4l0.3,0.4l0,0l0.4,0.6
				l0.3,0.6l0.3,0.6l0.3,0.6l0.3,0.6l0.3,0.6l0.3,0.6l0.3,0.6l0.3,0.6l0.3,0.6l0.3,0.6l0.3,0.6l0.3,0.6l0.2,0.6l0.2,0.6l0.2,0.6
				l0.2,0.6l0.2,0.6l0.2,0.7l0.2,0.6l0.2,0.7l0.2,0.7l0.2,0.7l0.2,0.7l0.1,0.7l0.1,0.7l0.1,0.7l0.1,0.7l0.1,0.7l0.1,0.7l0.1,0.7
				l0.1,0.7l0.1,0.7l0.1,0.7l0,0.7l0,0.7l0,0.7l0,0.7v0.7v0.7l0,1.7l0.7,19.6l0.1,0.7l0.1,1l0.1,1l0.1,1l0.1,1l0.2,1l0.2,1l0.2,1
				l0.2,1l0.2,1l0.2,1l0.2,1l0.3,0.9l0.3,0.9l0.3,0.9l0.3,0.9l0.3,0.9l0.3,0.9l0.3,0.9l0.3,0.9l0.4,0.9l0.4,0.9l0.4,0.9l0.4,0.9
				l0.4,0.9l0.4,0.9l0.4,0.9l0.5,0.9l0.5,0.9l0.5,0.8l0.5,0.8l0.5,0.8l0.5,0.8l0.5,0.8l0.6,0.8l0.6,0.8l0.6,0.8l0.6,0.8l0.6,0.8
				l0.6,0.8l0.6,0.8l7.6,9.2l-12.8-5.6l-0.5-0.2l-0.5-0.2l-0.5-0.2l-0.5-0.2l-0.5-0.2l-0.5-0.2l-0.5-0.2l-0.5-0.3l-0.5-0.3l-0.5-0.3
				l-0.5-0.3l-0.5-0.3l-0.5-0.3l-0.5-0.3l-0.5-0.3l-0.5-0.3l-0.5-0.3l-0.5-0.3l-0.5-0.3l-0.5-0.3l-0.5-0.3l-0.5-0.3l-0.5-0.3
				l-0.5-0.3l-0.5-0.3l-0.5-0.3l-0.4-0.3l-0.5-0.3l-0.4-0.3l-0.4-0.3l-0.4-0.3l-0.4-0.3l-0.4-0.3l-0.4-0.4l-0.4-0.4l-0.4-0.4
				l-0.3-0.3l-0.2-0.2l-0.3-0.3l-0.3-0.3l-0.3-0.3l-0.3-0.3l-0.3-0.4l-0.3-0.4l-0.3-0.4l-0.3-0.4l-0.3-0.4L102,143l-0.3-0.4
				l-0.3-0.4l-0.3-0.4l-0.3-0.4l-0.3-0.4l-0.3-0.4l-0.3-0.4l-0.3-0.4l-0.3-0.4l-0.3-0.4l-0.3-0.4l-0.3-0.4l-0.3-0.4l-0.3-0.4
				l-0.3-0.4l-0.3-0.4l-0.3-0.4l-0.3-0.4l-0.3-0.4l-0.3-0.4l-0.2-0.4l-0.2-0.4l-0.2-0.4l-0.2-0.4l-0.2-0.4l-0.2-0.4l-0.3-0.6
				l-0.3-0.6l-0.3-0.6l-0.3-0.6l-0.3-0.6l-0.3-0.6l-0.3-0.6l-0.2-0.6l-0.2-0.6l-0.2-0.6l-0.2-0.6l-0.2-0.6l-0.2-0.6l-0.2-0.6
				l-0.2-0.6l-0.2-0.6l-0.2-0.6l-0.2-0.6l-0.2-0.6l-0.1-0.6l-0.1-0.6l-0.1-0.6l-0.1-0.6l-0.1-0.6l-0.1-0.6l-0.1-0.6l-0.1-0.7
				l-0.1-0.6l-0.1-0.7l-0.1-0.7l0-0.7l0-0.7l0-0.7l0-0.7l0-0.7l0-0.7v-0.7l0-0.7l0-0.7l0-0.7l0.4-7.6l-1-15l0-0.2l0-0.2l0-0.2l0-0.2
				l0-0.2l0-0.2l0-0.2l0-0.2l0-0.2l0-0.2l0-0.2l0-0.2l0-0.2l0-0.2l0-0.2l0-0.2l0-0.2l0-0.2l0-0.2l0-0.2l0-0.2l0-0.2l0-0.2l0-0.2
				l0-0.2l0-0.2l0-0.2l0-0.2l0-0.2l0-0.2l0-0.2l0-0.2l0-0.2l0-0.2l0-0.2l0-0.2l0-0.2l0-0.2l0-0.2l0-0.2l-0.2-0.9l-0.2-0.9l-0.2-0.9
				L86.5,74l-0.3-0.9l-0.3-0.9l-0.3-0.9l-0.3-0.9L85,69.7l-0.3-0.8L84.4,68L84,67.2l-0.4-0.8l-0.4-0.8l-0.4-0.8l-0.4-0.8l-0.4-0.8
				l-0.4-0.8l-0.4-0.8l-0.4-0.8L80.3,60l-0.5-0.8l-0.5-0.8l-0.5-0.8l-0.5-0.7l-0.5-0.7l-0.5-0.7l-0.5-0.7L76.2,54l-0.6-0.7l-0.6-0.7
				l-0.6-0.7l-0.6-0.7l-0.6-0.7l-0.6-0.7l-0.6-0.7l-0.6-0.7l-0.6-0.6l-0.6-0.6l-0.7-0.6L65.6,43l4.7,1.5l0.7,0.2l0,0L71.6,44.9z
				 M342.5,127.7l1.1,0.5l1,0.6l0.9,0.7l0.8,0.8l0.7,0.9l0.6,1l0.5,1.1l0.4,1.1l0.3,1.2l0.1,1.2l0,1.3l-0.1,1.7l-0.1,1.1l-0.2,1.1
				l-0.3,1l-0.4,1l-0.5,0.9l-0.6,0.8l-0.7,0.8l-0.8,0.7l-0.8,0.6l-0.9,0.6l-0.9,0.5l-1,0.4l-1,0.3l-1.1,0.2l-1.1,0l-1.2-0.1
				l-1.2-0.2l-1.1-0.3l-1.1-0.4l-1-0.5l-1-0.6l-0.9-0.7l-0.8-0.8l-0.7-0.9l-0.6-1l-0.5-1l-0.4-1.1l-0.3-1.1l-0.2-1.2l-0.1-1.2V137
				l0.1-1l0.1-1l0.2-1l0.3-0.9l0.4-0.9l0.5-0.8l0.6-0.8l0.6-0.7l0.7-0.6l0.8-0.6l0.8-0.5l0.9-0.4l0.9-0.3l1-0.2l1-0.1l1.5-0.1l1.3,0
				l1.2,0.1l1.2,0.3l0,0L342.5,127.7z M105.4,146.7l0.1,0.1l0.1,0.1l0.4,0.3l0.4,0.3l0.4,0.3l-2.6-2.3l0.4,0.4l0.4,0.4l0,0
				L105.4,146.7z M261.9,140.7l-0.4,0.2l-0.2,0.1l-0.5,0.2l-0.5,0.2l-0.5,0.2l-0.5,0.2l4.5-1.9l-0.7,0.3l-0.7,0.3l0,0L261.9,140.7z
				 M161.1,5.9l0.5,0.5l0.5,0.6l0.5,0.6l0.5,0.6l0.5,0.6l0.5,0.6l0.5,0.6l0.4,0.6l0.4,0.6l0.4,0.6l0.4,0.6l0.4,0.6l0.4,0.6l0.4,0.6
				l0.4,0.6l0.4,0.6l0.4,0.6l0.4,0.6l0.4,0.6l0.4,0.6l0.4,0.6l0.4,0.6l0.4,0.6l0.4,0.6l0.4,0.6l0.3,0.6l0.3,0.6l0.3,0.6l0.3,0.6
				l0.3,0.6l0.3,0.6l0.3,0.7l0.3,0.7l0.3,0.7l0.1,0.3l0.1,0.2l0.2,0.5l0.2,0.5l0.2,0.5l0.2,0.5l0.1,0.5l0.1,0.5l0.1,0.5l0.1,0.5
				l0.1,0.5l0.1,0.5l0.1,0.5l0.1,0.5l0.1,0.5l0.1,0.5l0.1,0.5l0.1,0.5l0.1,0.5l0.1,0.5l0.1,0.5l0.1,0.5l0.1,0.5l0.1,0.5l0.1,0.5
				l0.1,0.5l0.1,0.5l0.1,0.5l0.1,0.5l0,0.5l0.1,0.5l0,0.5l0,0.5l0,0.5l0,0.5l0,0.5l0,0.5v0.1l0,0.7l0,0.7v0.7v0.7l0,0.7l0,0.7l0,0.7
				l0,0.7l0,0.7l-0.1,0.7l-0.1,0.7l-0.1,0.7l-0.1,0.7l-0.1,0.7l-0.1,0.7l-0.1,0.7l-0.1,0.7l-0.1,0.7l-0.1,0.7l-0.2,0.7l-0.2,0.7
				l-0.2,0.6l-0.2,0.7l-0.2,0.7l-0.2,0.6l-0.2,0.6l-0.2,0.6l-0.2,0.6l-0.2,0.6l-0.3,0.6l-0.3,0.6l-0.3,0.6l-0.3,0.6l-0.3,0.6
				l-0.3,0.6l-0.3,0.6l-0.3,0.6l-0.3,0.6l-0.3,0.6l-0.3,0.6l-0.9,1.5l-9,17.4l-0.3,0.6l-0.4,0.9l-0.4,0.9l-0.4,0.9l-0.4,0.9
				l-0.3,0.9l-0.3,0.9l-0.3,0.9l-0.3,0.9l-0.3,0.9l-0.3,0.9l-0.3,0.9l-0.2,0.9l-0.2,1l-0.2,0.9l-0.2,1l-0.2,1l-0.2,1l-0.2,1l-0.1,1
				l-0.1,1l-0.1,1l-0.1,1l-0.1,1l-0.1,1l0,1l0,1l0,1l0,1v1l0,1l0,1l0,1l0.1,1l0.1,1l0.1,1l0.1,1l0.1,1l0.1,1l0.1,1l0.2,1l2.1,11.8
				l-8.4-11.2l-0.3-0.4l-0.3-0.5l-0.3-0.4l-0.3-0.5l-0.3-0.5l-0.3-0.5l-0.3-0.5l-0.3-0.5l-0.3-0.5l-0.3-0.5l-0.3-0.5l-0.3-0.5
				l-0.3-0.5l-0.3-0.5l-0.3-0.5l-0.3-0.5l-0.3-0.5l-0.3-0.5l-0.3-0.5l-0.3-0.5l-0.3-0.5l-0.2-0.5l-0.2-0.5l-0.2-0.5l-0.2-0.5
				l-0.2-0.5l-0.2-0.5l-0.2-0.5l-0.2-0.5l-0.2-0.5l-0.2-0.5l-0.2-0.5l-0.2-0.5l-0.2-0.5l-0.2-0.5l-0.2-0.5l-0.1-0.4l-0.1-0.3
				l-0.1-0.5l-0.1-0.5l-0.1-0.5l-0.1-0.5l-0.1-0.5l-0.1-0.5l-0.1-0.5l-0.1-0.5l-0.1-0.5l-0.1-0.5l-0.1-0.5l-0.1-0.5l-0.1-0.5
				l-0.1-0.5l-0.1-0.5l-0.1-0.5l-0.1-0.5l-0.1-0.5l-0.1-0.5l-0.1-0.5l-0.1-0.5l0-0.5l0-0.5l0-0.5l0-0.5l0-0.5l0-0.5l0-0.5l0-0.5
				l0-0.5l0-0.5l0-0.5v-0.5v-0.5v-0.5l0-0.5l0-0.7l0-0.7l0-0.7l0-0.7l0.1-0.7l0.1-0.7l0.1-0.7l0.1-0.7l0.1-0.7l0.1-0.6l0.1-0.6
				l0.1-0.6l0.1-0.6l0.1-0.6l0.1-0.6l0.2-0.6l0.2-0.6l0.2-0.6l0.2-0.6l0.2-0.6l0.2-0.6l0.2-0.6l0.2-0.6l0.2-0.6l0.2-0.6l0.2-0.6
				l0.2-0.6l0.3-0.6l0.3-0.6l0.3-0.6l0.3-0.6l0.3-0.6l0.3-0.6l0.3-0.6l0.3-0.6l0.3-0.6l0.3-0.6l0.3-0.6l0.3-0.6l0.3-0.6l4-6.4
				l6.5-13.5l0.1-0.2l0.1-0.2l0.1-0.2l0.1-0.2l0.1-0.2l0.1-0.2l0.1-0.2l0.1-0.2l0.1-0.2L157,47l0.1-0.2l0.1-0.2l0.1-0.2l0.1-0.2
				l0.1-0.2l0.1-0.2l0.1-0.2l0.1-0.2l0.1-0.2l0.1-0.2l0.1-0.2l0.1-0.2l0.1-0.2l0.1-0.2l0.1-0.2l0.1-0.2l0.1-0.2l0.1-0.2l0.1-0.2
				l0-0.2l0.1-0.2l0.1-0.2l0-0.2l0.1-0.2l0-0.2l0.1-0.2l0-0.2l0-0.2l0.1-0.2l0-0.2l0.2-0.9l0.2-0.9l0.2-0.9l0.2-0.9l0.2-0.9l0.2-0.9
				l0.2-0.9l0.2-0.9l0.1-0.9l0.1-0.9l0.1-0.9l0.1-0.9l0.1-0.9l0.1-0.9l0.1-0.9l0-0.9l0-0.9l0-0.9l0-0.9l0-0.9l0-0.9l0-0.9l0-0.9
				l-0.1-0.9l-0.1-0.9l-0.1-0.9l-0.1-0.9l-0.1-0.9l-0.1-0.9l-0.1-0.9l-0.1-0.9l-0.2-0.9l-0.2-0.9l-0.2-0.9l-0.2-0.9l-0.2-0.9
				L159.2,9l-0.2-0.9l-0.3-0.9l-0.3-0.9l-1.6-5.1l3.3,3.6l0.5,0.5l0,0L161.1,5.9z M331,69.4l-0.2,0.7l-0.2,0.7l-0.2,0.7l-0.2,0.7
				l-0.2,0.7l-0.2,0.7l-0.2,0.7l-0.3,0.7l-0.3,0.7l-0.3,0.7l-0.3,0.7l-0.3,0.7l-0.3,0.7l-0.3,0.7l-0.3,0.7l-0.3,0.7l-0.3,0.6
				l-0.3,0.6l-0.3,0.6l-0.3,0.6l-0.3,0.6l-0.3,0.6l-0.3,0.6l-0.4,0.6l-0.4,0.6l-0.4,0.6l-0.4,0.6l-0.4,0.6l-0.4,0.6l-0.4,0.6
				l-0.4,0.6l-0.4,0.6l-0.4,0.6l-0.4,0.6l-0.2,0.3l-0.2,0.2l-0.3,0.4l-0.3,0.4l-0.3,0.4l-0.3,0.4l-0.3,0.4l-0.3,0.4l-0.3,0.4
				l-0.4,0.4l-0.4,0.4l-0.4,0.4l-0.4,0.4l-0.4,0.4l-0.4,0.4l-0.4,0.4l-0.4,0.4l-0.4,0.3l-0.4,0.3l-0.4,0.3l-0.4,0.3l-0.4,0.3
				l-0.4,0.3l-0.4,0.3l-0.4,0.3l-0.4,0.3l-0.4,0.3l-0.4,0.3l-0.4,0.3l-0.4,0.3l-0.4,0.3l-0.4,0.3l-0.4,0.3L308,103l-0.4,0.3
				l-0.4,0.3l-0.4,0.3l0,0l-0.6,0.4l-0.6,0.4l-0.6,0.4l-0.6,0.3l-0.6,0.3l-0.6,0.3l-0.6,0.3l-0.6,0.3l-0.6,0.3l-0.6,0.3l-0.6,0.3
				l-0.6,0.3l-0.6,0.3l-0.6,0.3l-0.6,0.2l-0.6,0.2l-0.6,0.2l-0.6,0.2l-0.6,0.2l-0.6,0.2l-0.6,0.2l-0.7,0.2l-0.6,0.2l-0.7,0.2
				l-0.7,0.2l-0.7,0.2l-0.7,0.1l-0.7,0.1l-0.7,0.1l-0.7,0.1l-0.7,0.1l-0.7,0.1l-0.7,0.1l-0.7,0.1l-0.7,0.1l-0.7,0.1l-0.7,0l-0.7,0
				l-0.7,0l-0.7,0l-1.7,0l-19.6,1.4l-0.7,0.1l-1,0.1l-1,0.1l-1,0.1l-1,0.2l-1,0.2l-1,0.2l-1,0.2l-1,0.2l-0.9,0.2l-0.9,0.3l-0.9,0.3
				l-0.9,0.3l-0.9,0.3l-0.9,0.3l-0.9,0.3l-0.9,0.3l-0.9,0.3l-0.9,0.4l-0.9,0.4l-0.9,0.4l-0.9,0.4l-0.9,0.4l-0.9,0.4l-0.9,0.4
				l-0.9,0.5l-0.9,0.5l-0.9,0.5l-0.8,0.5l-0.8,0.5l-0.8,0.5l-0.8,0.5l-0.8,0.5l-0.8,0.6l-0.8,0.6l-0.8,0.6l-0.8,0.6l-0.8,0.6
				l-0.8,0.6l-0.8,0.6l-0.7,0.6l-9,7.8l5.2-13l0.2-0.5l0.2-0.5l0.2-0.5l0.2-0.5l0.2-0.5l0.2-0.5l0.2-0.5l0.2-0.5l0.2-0.5l0.2-0.5
				l0.3-0.5l0.3-0.5l0.3-0.5l0.3-0.5l0.3-0.5l0.3-0.5l0.3-0.5l0.3-0.5l0.3-0.5l0.3-0.5l0.3-0.5l0.3-0.5l0.3-0.5l0.3-0.5l0.3-0.5
				l0.3-0.5l0.3-0.5l0.3-0.5l0.3-0.5l0.3-0.5l0.3-0.5l0.3-0.4l0.3-0.4l0.3-0.4l0.3-0.4l0.4-0.4l0.3-0.3l0.2-0.2l0.3-0.4l0.3-0.4
				l0.3-0.3l0.3-0.4l0.3-0.3l0.3-0.3l0.4-0.3l0.3-0.3l0.4-0.3l0.4-0.3l0.4-0.3l0.4-0.3l0.4-0.3l0.4-0.3l0.4-0.3l0.4-0.3l0.4-0.3
				l0.4-0.3l0.4-0.3l0.4-0.3l0.4-0.3l0.4-0.3l0.4-0.3l0.4-0.3l0.4-0.3l0.4-0.3l0.4-0.3l0.4-0.3l0.4-0.3l0.4-0.3l0.4-0.3l0.4-0.3
				l0.4-0.3l0.4-0.2l0.4-0.3l0.4-0.2l0.6-0.3l0.6-0.3l0.6-0.3l0.6-0.3l0.6-0.3l0.6-0.3l0.6-0.3l0.6-0.3l0.6-0.3l0.6-0.3l0.6-0.2
				l0.6-0.2l0.6-0.2l0.6-0.2l0.6-0.2l0.6-0.2l0.6-0.2l0.6-0.2l0.6-0.2l0.6-0.2l0.6-0.2l0.6-0.1l0.6-0.1l0.6-0.1l0.6-0.1l0.6-0.1
				l0.6-0.1l0.7-0.1l0.6-0.1l0.7-0.1l0.7-0.1l0.7-0.1l0.7-0.1l0.7,0l0.7,0l0.7,0l0.7,0l0.7,0h0.7h0.7l7.6,0.1l14.9-1.4l0.2,0l0.2,0
				l0.2,0l0.2,0l0.2,0l0.2,0l0.2,0l0.2,0l0.2,0l0.2,0l0.2,0l0.2,0l0.2,0l0.2,0l0.2,0l0.2,0l0.2,0l0.2,0l0.2,0l0.2,0l0.2,0l0.2,0
				l0.2,0l0.2,0l0.2,0l0.2,0l0.2,0l0.2,0l0.2,0l0.2,0l0.2,0l0.2,0l0.2,0l0.2,0l0.2,0l0.2,0l0.2,0l0.2,0l0.2,0l0.2,0l0.9-0.2l0.9-0.3
				l0.9-0.3l0.9-0.3l0.9-0.3l0.9-0.3l0.9-0.3l0.8-0.3l0.8-0.3l0.8-0.4l0.8-0.4l0.8-0.4l0.8-0.4l0.8-0.4l0.8-0.4l0.8-0.4l0.8-0.4
				l0.8-0.5l0.8-0.5l0.8-0.5l0.8-0.5l0.8-0.5l0.7-0.5l0.7-0.5l0.7-0.5l0.7-0.5l0.7-0.5l0.7-0.6l0.7-0.6l0.7-0.6l0.7-0.6l0.7-0.6
				l0.7-0.6l0.7-0.6l0.6-0.6l0.6-0.6l0.6-0.6l0.6-0.7l0.6-0.7l0.6-0.7l3.5-4.1l-1.3,4.7l-0.2,0.7l0,0L331,69.4z M251.5,13.7l0.2,0.7
				l0.2,0.7l0.2,0.7l0.2,0.7l0.2,0.7l0.2,0.7l0.2,0.7l0.1,0.7l0.1,0.7l0.1,0.7l0.1,0.7l0.1,0.7l0.1,0.7l0.1,0.7l0.1,0.7l0.1,0.7
				l0.1,0.7l0.1,0.7l0.1,0.7l0.1,0.7l0.1,0.7l0.1,0.7l0,0.7l0,0.7l0,0.7l0,0.7l0,0.7l0,0.7l0,0.7v0.7v0.7l0,0.7l0,0.7l0,0.7l0,0.5
				l0,0.4l-0.1,0.5l-0.1,0.5l-0.1,0.5l-0.1,0.5l-0.1,0.5l-0.1,0.5l-0.1,0.5l-0.1,0.5l-0.1,0.5l-0.1,0.5l-0.1,0.5l-0.1,0.5l-0.1,0.5
				l-0.1,0.5l-0.1,0.5l-0.1,0.5l-0.1,0.5l-0.1,0.5l-0.1,0.5l-0.1,0.5l-0.2,0.5l-0.1,0.5l-0.2,0.5l-0.2,0.5l-0.2,0.5l-0.2,0.5
				l-0.2,0.5l-0.2,0.5l-0.2,0.5l-0.2,0.5l-0.2,0.5l-0.2,0.5l-0.2,0.5l-0.2,0.5l-0.2,0.5l0,0.1l-0.3,0.6l-0.3,0.6l-0.3,0.6l-0.3,0.6
				l-0.3,0.6l-0.3,0.6l-0.3,0.6l-0.4,0.6l-0.4,0.6l-0.4,0.6l-0.4,0.6l-0.4,0.6l-0.4,0.5l-0.4,0.5l-0.4,0.5l-0.4,0.5l-0.4,0.5
				l-0.4,0.5l-0.4,0.5l-0.4,0.5l-0.5,0.5l-0.5,0.5l-0.5,0.5l-0.5,0.5l-0.5,0.5l-0.5,0.5l-0.5,0.4l-0.5,0.4l-0.5,0.4l-0.5,0.4
				l-0.5,0.4l-0.5,0.4l-0.5,0.4l-0.6,0.4l-0.6,0.4l-0.6,0.4l-0.6,0.4l-0.6,0.3l-0.6,0.3l-0.6,0.3l-2,1.1l-16.3,10.3l-1,0.7l-0.8,0.6
				l-0.8,0.6l-0.8,0.6l-0.8,0.6l-0.7,0.6l-0.7,0.6l-0.7,0.6l-0.7,0.6l-0.7,0.7l-0.7,0.7l-0.7,0.7l-0.7,0.7l-0.6,0.7l-0.6,0.7
				l-0.6,0.7l-0.6,0.7l-0.6,0.7l-0.6,0.8l-0.6,0.8l-0.6,0.8l-0.6,0.8l-0.5,0.8l-0.5,0.8l-0.5,0.8l-0.5,0.8l-0.5,0.8l-0.5,0.8
				l-0.5,0.8l-0.5,0.8l-0.4,0.9l-0.4,0.9l-0.4,0.9l-0.4,0.9l-0.4,0.9l-0.4,0.9l-0.4,0.9l-0.3,0.9l-0.3,0.9l-0.3,0.9l-0.3,0.9
				l-3.5,11.4l-3-14.5l-0.1-0.5l-0.1-0.5l-0.1-0.5l-0.1-0.5l-0.1-0.5l-0.1-0.5l-0.1-0.5l-0.1-0.5l-0.1-0.5l-0.1-0.5l-0.1-0.5l0-0.5
				l-0.1-0.6l0-0.5l0-0.5l0-0.6l0-0.5l0-0.5l0-0.6l0-0.5l0-0.6l0-0.5v-0.6v-0.5v-0.6l0-0.5l0-0.6l0-0.5l0-0.6l0-0.5l0-0.6l0-0.5
				l0-0.5l0-0.6l0.1-0.5l0-0.6l0.1-0.5l0.1-0.4l0.1-0.5l0.1-0.5l0.1-0.5l0.1-0.5l0.1-0.5l0.1-0.5l0.1-0.5l0.1-0.5l0.1-0.5l0.1-0.5
				l0.1-0.5l0.1-0.5l0.1-0.5l0.1-0.5l0.1-0.5l0.1-0.5l0.2-0.5l0.2-0.5l0.2-0.4l0.2-0.5l0.2-0.4l0.2-0.4l0.2-0.4l0.2-0.4l0.2-0.4
				l0.2-0.4l0.2-0.4l0.2-0.4l0.2-0.4l0.2-0.4l0.2-0.4l0.2-0.4l0.2-0.4l0.2-0.4l0.2-0.4l0.2-0.4l0.3-0.6l0.3-0.6l0.3-0.6l0.3-0.6
				l0.4-0.6l0.4-0.5l0.4-0.5l0.4-0.5l0.4-0.5l0.4-0.5l0.4-0.5l0.4-0.5l0.4-0.5l0.4-0.5l0.4-0.5l0.4-0.5l0.4-0.5l0.4-0.5l0.5-0.5
				l0.5-0.5l0.5-0.5l0.5-0.4l0.5-0.4l0.5-0.4l0.5-0.4l0.5-0.4l0.5-0.4l0.5-0.4l0.5-0.4l0.5-0.4l0.5-0.4l0.5-0.4l0.5-0.4l0.5-0.4
				l0.6-0.3l0.6-0.3l0.6-0.3l0.6-0.3l0.6-0.3l0.6-0.3l7.2-3.7l12.5-8.5l0.1-0.1l0.1-0.1l0.1-0.1l0.1-0.1l0.1-0.1l0.1-0.1l0.1-0.1
				l0.1-0.1l0.1-0.1l0.1-0.1l0.1-0.1l0.1-0.1l0.1-0.1l0.1-0.1l0.1-0.1l0.1-0.1l0.1-0.1l0.1-0.1l0.1-0.1l0.1-0.1l0.1-0.1l0.1-0.1
				l0.1-0.1l0.1-0.1l0.1-0.1l0.1-0.1l0.1-0.1l0.1-0.1l0.1-0.1l0.1-0.1l0.1-0.1l0.1-0.1l0.1-0.1l0.1-0.1l0.1-0.1l0.1-0.1l0.1-0.1
				l0.1-0.1l0.1-0.1l0.1-0.1l0.1-0.1l0.6-0.6l0.6-0.6l0.6-0.6l0.6-0.6l0.6-0.7l0.6-0.7l0.6-0.7l0.6-0.7l0.5-0.7l0.5-0.7l0.5-0.7
				l0.5-0.7l0.5-0.7l0.5-0.7l0.5-0.7l0.5-0.7l0.5-0.8l0.4-0.8l0.4-0.8l0.4-0.8l0.4-0.8l0.4-0.8l0.4-0.8l0.4-0.8l0.3-0.8l0.3-0.8
				l0.3-0.8l0.3-0.8l0.3-0.8l0.3-0.8l0.3-0.8l0.3-0.8l0.2-0.9l0.2-0.9l0.2-0.9l0.2-0.9L248,15l0.2-0.9l0.2-0.9l0.1-0.9l0.8-5.5
				l1.8,5.5l0.2,0.7l0,0L251.5,13.7z M42.3,124.1l-0.7-0.1l-0.4,0l-0.3,0l-0.5-0.1l-0.5-0.1l-0.5-0.1l-0.5-0.1l4.8,0.7l-0.7-0.1l0,0
				L42.3,124.1z M140.6,111.1l0.1,0.1l0,0.2l0.1,0.5l0.1,0.5l0.1,0.5l-1.1-3.3l0.2,0.5l0.2,0.5l0,0L140.6,111.1z M230.3,106.3
				l-0.1,0.1l-0.1,0.1l-0.3,0.4l-0.3,0.4l-0.3,0.4l2.3-2.6l-0.4,0.4l-0.4,0.4l0,0L230.3,106.3z M183,94.2L183,94.2l0,0.1l-0.1,0.5
				l-0.1,0.5l-0.1,0.5l0.5-3.2l-0.1,0.5l-0.1,0.5l0,0L183,94.2z M319.4,92.6l0.4-0.6l0.2-0.3l0.2-0.2l0.3-0.4l0.3-0.4l0.3-0.4
				l0.3-0.4l-2.9,3.9l0.4-0.6l0,0L319.4,92.6z M74.1,71.5l1.1,0.5l1,0.6l0.9,0.7l0.8,0.8l0.7,0.9l0.6,1l0.5,1.1l0.4,1.1l0.3,1.2
				l0.1,1.2l0,1.3l-0.1,1.7l-0.1,1.1l-0.2,1.1l-0.3,1l-0.4,1l-0.5,0.9l-0.6,0.8l-0.7,0.8l-0.8,0.7L76,91.8l-0.9,0.5l-0.9,0.5l-1,0.4
				l-1,0.3l-1.1,0.2l-1.1,0l-1.2-0.1l-1.2-0.2l-1.1-0.3l-1.1-0.4l-1-0.5l-1-0.6l-0.9-0.7l-0.8-0.8L60.9,89l-0.6-1l-0.5-1L59.3,86
				L59,84.8l-0.2-1.2l-0.1-1.2v-1.6l0-1l0.2-1l0.2-1l0.3-0.9l0.4-0.9l0.5-0.8l0.6-0.8l0.6-0.7l0.7-0.6l0.8-0.6l0.8-0.5l0.9-0.4
				l0.9-0.3l1-0.2l1-0.1l1.5-0.1l1.3,0l1.2,0.1l1.2,0.3l0,0L74.1,71.5z M298.3,57.1l1.1,0.5l1,0.6l0.9,0.7l0.8,0.8l0.7,0.9l0.6,1
				l0.5,1.1l0.4,1.1l0.3,1.2l0.1,1.2l0,1.3l-0.1,1.7l-0.1,1.1l-0.2,1.1l-0.3,1l-0.4,1l-0.5,0.9l-0.6,0.8l-0.7,0.8l-0.8,0.7l-0.8,0.6
				l-0.9,0.6l-0.9,0.5l-1,0.4l-1,0.3l-1.1,0.2l-1.1,0l-1.2-0.1l-1.2-0.2l-1.1-0.3l-1.1-0.4l-1-0.5l-1-0.6l-0.9-0.7l-0.8-0.8
				l-0.7-0.9l-0.6-1l-0.5-1l-0.4-1.1l-0.3-1.1l-0.2-1.2l-0.1-1.2v-1.6l0-1l0.1-1l0.2-1l0.3-0.9l0.4-0.9l0.5-0.8l0.6-0.8l0.6-0.7
				l0.7-0.6l0.8-0.6l0.8-0.5l0.9-0.4l0.9-0.3l1-0.2l1-0.1l1.5-0.1l1.3,0l1.2,0.1l1.2,0.3l0,0L298.3,57.1z M94.5,57.2l-0.6-0.4
				l-0.3-0.2l-0.2-0.2L93,56l-0.4-0.3l-0.4-0.3L91.8,55l3.8,3.1L95,57.6l0,0L94.5,57.2z M142.7,23.3l1.1,0.5l1,0.6l0.9,0.7l0.8,0.8
				l0.7,0.9l0.6,1l0.5,1.1l0.4,1.1l0.3,1.2l0.1,1.2l0,1.3l-0.1,1.7l-0.1,1.1l-0.2,1.1l-0.3,1l-0.4,1l-0.5,0.9l-0.6,0.8l-0.7,0.8
				l-0.8,0.7l-0.8,0.6l-0.9,0.5l-0.9,0.5l-1,0.4l-1,0.3l-1.1,0.2l-1.1,0l-1.2-0.1l-1.2-0.2l-1.1-0.3l-1.1-0.4l-1-0.5l-1-0.6
				l-0.9-0.7l-0.8-0.8l-0.7-0.9l-0.6-1l-0.5-1l-0.4-1.1l-0.3-1.1l-0.2-1.2l-0.1-1.2v-1.6l0.1-1l0.1-1l0.2-1l0.3-0.9l0.4-0.9l0.5-0.8
				l0.6-0.8l0.6-0.7l0.7-0.6l0.8-0.6l0.8-0.5l0.9-0.4l0.9-0.3l1-0.2l1-0.1l1.5-0.1l1.3,0l1.2,0.1l1.2,0.3l0,0L142.7,23.3z
				 M254.5,39.1l0-0.7l0-0.2l0-0.1l0-0.5l0-0.5l0-0.5l0-0.5l-0.3,4.5l0-0.7l0,0L254.5,39.1z M223.1,18.4l1.1,0.5l1,0.6l0.9,0.7
				l0.8,0.8l0.7,0.9l0.6,1l0.5,1.1l0.4,1.1l0.3,1.2l0.1,1.2l0,1.3l-0.1,1.7l-0.1,1.1l-0.2,1.1l-0.3,1l-0.4,1l-0.5,0.9l-0.6,0.8
				l-0.7,0.8l-0.8,0.7l-0.8,0.6l-0.9,0.5l-0.9,0.5l-1,0.4l-1,0.3l-1.1,0.2l-1.1,0l-1.2-0.1l-1.2-0.2l-1.1-0.3l-1.1-0.4l-1-0.5
				l-1-0.6l-0.9-0.7l-0.8-0.8l-0.7-0.9l-0.6-1l-0.5-1l-0.4-1.1l-0.3-1.1l-0.2-1.2l-0.1-1.2v-1.6l0-1l0.1-1l0.2-1l0.3-0.9l0.4-0.9
				l0.5-0.8l0.6-0.8l0.6-0.7l0.7-0.6l0.8-0.6l0.8-0.5l0.9-0.4l0.9-0.3l1-0.2l1-0.1l1.5-0.1l1.3,0l1.2,0.1l1.2,0.3l0,0L223.1,18.4z
				 M175,27.8l-0.3-0.7l-0.2-0.4l-0.1-0.2l-0.2-0.5l-0.2-0.5l-0.2-0.5l-0.2-0.5l1.8,4.5l-0.3-0.7l0,0L175,27.8z"/>
		</g>
		<g>
			<g>
				<path id="b3zrMwKsZm_1_" class="st1" d="M268.2,185.2l0.7,0l0.7,0l0.7,0l0.7,0l0.7,0l0.7,0.1l0.7,0.1l0.7,0.1l0.7,0.1l0.7,0.1
					l0.3,0l0.2,0l0.5,0.1l0.5,0.1l0.5,0.1l0.5,0.1l0.5,0.1l0.5,0.1l0.5,0.1l0.5,0.1l0.5,0.1l0.5,0.1l0.5,0.1l0.5,0.1l0.5,0.2
					l0.5,0.2l0.5,0.2l0.5,0.2l0.5,0.2l0.5,0.2l0.5,0.2l0.5,0.2l0.5,0.2l0.5,0.2l0.5,0.2l0.5,0.2l0.5,0.2l0.5,0.2l0.5,0.2l0.5,0.2
					l0.5,0.2l0.5,0.2l0.5,0.2l0.5,0.2l0.5,0.2l0.5,0.2l0.5,0.2l0,0l0.6,0.3l0.6,0.3l0.6,0.4l0.6,0.4l0.6,0.4l0.6,0.4l0.6,0.4
					l0.6,0.4l0.6,0.4l0.6,0.4l0.5,0.4l0.5,0.4l0.5,0.4l0.5,0.4l0.5,0.4l0.5,0.5l0.5,0.5l0.5,0.5l0.5,0.5l0.5,0.5l0.5,0.5l0.5,0.5
					l0.5,0.5l0.5,0.5l0.5,0.5l0.4,0.5l0.4,0.5l0.4,0.5l0.4,0.5l0.4,0.5l0.4,0.6l0.4,0.6l0.4,0.6l0.4,0.6l0.4,0.6l0.4,0.6l0.4,0.6
					l0.4,0.6l0.3,0.6l0.3,0.6l0.8,1.5l10.3,16.7l0.4,0.6l0.6,0.8l0.6,0.8l0.6,0.8l0.6,0.8l0.6,0.8l0.6,0.8l0.6,0.7l0.6,0.7l0.7,0.7
					l0.7,0.7l0.7,0.7l0.7,0.7l0.7,0.7l0.7,0.7l0.7,0.7l0.7,0.7l0.7,0.6l0.7,0.6l0.8,0.6l0.8,0.6l0.8,0.6l0.8,0.6l0.8,0.6l0.8,0.6
					l0.8,0.6l0.8,0.5l0.8,0.5l0.8,0.5l0.8,0.5l0.8,0.5l0.9,0.5l0.9,0.5l0.9,0.5l0.9,0.4l0.9,0.4l0.9,0.4l0.9,0.4l0.9,0.4l0.9,0.4
					l0.9,0.4l11.1,4.3l-13.9,1.5l-0.6,0.1l-0.6,0l-0.6,0l-0.6,0l-0.6,0l-0.6,0l-0.6,0l-0.6,0l-0.6,0l-0.6,0l-0.6,0l-0.6,0h-0.6
					l-0.6,0h-0.6l-0.6,0l-0.6,0l-0.6,0l-0.6,0l-0.6,0l-0.6,0l-0.6,0l-0.6,0l-0.6,0l-0.6,0l-0.6-0.1l-0.6-0.1l-0.6-0.1l-0.6-0.1
					l-0.5-0.1l-0.6-0.1l-0.6-0.1l-0.6-0.1l-0.6-0.1l-0.5-0.1l-0.6-0.1l-0.4-0.1l-0.3-0.1l-0.5-0.1l-0.5-0.1l-0.5-0.1l-0.5-0.1
					l-0.5-0.1l-0.5-0.1l-0.5-0.1l-0.5-0.2l-0.5-0.2l-0.5-0.2l-0.5-0.2l-0.5-0.2l-0.5-0.2l-0.5-0.2l-0.5-0.2l-0.5-0.2l-0.4-0.2
					l-0.5-0.2l-0.4-0.2l-0.4-0.2l-0.4-0.2l-0.4-0.2l-0.4-0.2l-0.4-0.2l-0.4-0.2l-0.4-0.2l-0.4-0.2l-0.4-0.2l-0.4-0.2l-0.4-0.2
					l-0.4-0.2l-0.4-0.2l-0.4-0.2l-0.4-0.2l-0.4-0.3l-0.4-0.3l-0.6-0.4l-0.6-0.4l-0.6-0.4l-0.6-0.4l-0.5-0.4l-0.5-0.4l-0.5-0.4
					l-0.5-0.4l-0.5-0.4l-0.5-0.4l-0.5-0.4l-0.5-0.4l-0.5-0.4l-0.5-0.4l-0.5-0.5l-0.5-0.5l-0.5-0.5l-0.5-0.5l-0.5-0.5l-0.5-0.5
					l-0.4-0.5l-0.4-0.5l-0.4-0.5l-0.4-0.5l-0.4-0.5l-0.4-0.5l-0.4-0.5l-0.4-0.5l-0.4-0.5l-0.4-0.5l-0.4-0.6l-0.4-0.6l-0.4-0.6
					l-0.4-0.6l-0.3-0.6l-0.3-0.6l-0.3-0.6l-0.3-0.6l-0.3-0.6l-0.3-0.6l-3.5-6.8l-8.3-12.5l-0.1-0.1l-0.1-0.1l-0.1-0.1l-0.1-0.1
					l-0.1-0.1l-0.1-0.1l-0.1-0.1l-0.1-0.1l-0.1-0.1l-0.1-0.1l-0.1-0.1l-0.1-0.1l-0.1-0.1l-0.1-0.1l-0.1-0.1l-0.1-0.1l-0.1-0.1
					l-0.1-0.1l-0.1-0.1l-0.1-0.1l-0.1-0.1l-0.1-0.1l-0.1-0.1l-0.1-0.1l-0.1-0.1l-0.1-0.1l-0.1-0.1l-0.1-0.1l-0.1-0.1l-0.1-0.1
					l-0.1-0.1l-0.1-0.1l-0.1-0.1l-0.1-0.1l-0.1-0.1l-0.1-0.1l-0.1-0.1l-0.1-0.1l-0.1-0.1l-0.1-0.1l-0.6-0.7l-0.6-0.7l-0.6-0.6
					l-0.6-0.6l-0.7-0.6l-0.7-0.6l-0.7-0.6l-0.7-0.6l-0.7-0.6l-0.7-0.6l-0.7-0.6l-0.7-0.6l-0.7-0.5l-0.7-0.5l-0.7-0.5l-0.7-0.5
					l-0.7-0.5l-0.8-0.5l-0.8-0.5l-0.8-0.5l-0.8-0.5l-0.8-0.4l-0.8-0.4l-0.8-0.4l-0.8-0.4l-0.8-0.4l-0.8-0.4l-0.8-0.4l-0.8-0.4
					l-0.8-0.3l-0.8-0.3l-0.8-0.3l-0.9-0.3l-0.9-0.3l-0.9-0.3l-0.9-0.3l-0.9-0.3l-0.9-0.2l-0.9-0.2l-0.9-0.2l-5.2-1.2l4.8-1l0.7-0.1
					l0.7-0.1l0.7-0.1l0.7-0.1l0.7-0.1l0.7-0.1l0.7-0.1l0.7-0.1l0.7-0.1l0.7-0.1l0.7-0.1l0.7-0.1l0.7-0.1l0.7-0.1l0.7-0.1l0.7,0
					l0.7,0l0.7,0l0.7,0l0.7,0l0.7,0l0.7,0h0.7l0.7,0l0.7,0l0,0L268.2,185.2z M330.6,258.3l0.1,0l0.2,0l0.5,0.1l0.5,0.1l0.5,0.1
					L329,258l0.5,0.1l0.5,0.1l0,0L330.6,258.3z M42.3,232.9l1.1,0.5l1,0.6l0.9,0.7l0.8,0.8l0.7,0.9l0.6,1l0.5,1.1l0.4,1.1l0.3,1.2
					l0.1,1.2l0,1.3l-0.1,1.7l-0.1,1.1l-0.2,1.1l-0.3,1l-0.4,1l-0.5,0.9l-0.6,0.8l-0.7,0.8l-0.8,0.7l-0.8,0.6l-0.9,0.5l-0.9,0.5
					l-1,0.4l-1,0.3l-1.1,0.2l-1.1,0l-1.2-0.1l-1.2-0.2l-1.1-0.3l-1.1-0.4l-1-0.5l-1-0.6l-0.9-0.7l-0.8-0.8l-0.7-0.9l-0.6-1l-0.5-1
					l-0.4-1.1l-0.3-1.1L27,245l-0.1-1.2v-1.6l0.1-1l0.1-1l0.2-1l0.3-0.9l0.4-0.9l0.5-0.8l0.6-0.8l0.6-0.7l0.7-0.6l0.8-0.6l0.8-0.5
					l0.9-0.4l0.9-0.3l1-0.2l1-0.1l1.5-0.1l1.3,0l1.2,0.1l1.2,0.3l0,0L42.3,232.9z M50.5,205.9l0.7,0l0.7,0l0.7,0l0.7,0.1l0.7,0.1
					l0.7,0.1l0.7,0.1l0.7,0.1l0.7,0.1l0.7,0.1l0.7,0.1l0.7,0.1l0.7,0.2l0.7,0.2l0.7,0.2l0.6,0.2l0.7,0.2l0.6,0.2l0.6,0.2l0.6,0.2
					l0.6,0.2l0.6,0.2l0.6,0.2l0.6,0.3l0.6,0.3l0.6,0.3l0.6,0.3l0.6,0.3l0.6,0.3l0.6,0.3l0.6,0.3l0.6,0.3l1.5,0.8l17.6,8.6l0.7,0.3
					l0.9,0.4l0.9,0.4l0.9,0.4l0.9,0.3l0.9,0.3l0.9,0.3l0.9,0.3l0.9,0.3l0.9,0.3l0.9,0.2l1,0.2l0.9,0.2l1,0.2l1,0.2l1,0.2l1,0.2
					l1,0.1l1,0.1l1,0.1l1,0.1l1,0.1l1,0.1l1,0.1l1,0l1,0l1,0l1,0l1,0l1,0l1,0l1,0l1-0.1l1-0.1l1-0.1l1-0.1l1-0.1l1-0.1l1-0.2l1-0.2
					l1-0.2l11.7-2.3l-11,8.7l-0.4,0.3l-0.4,0.3l-0.4,0.3l-0.5,0.3l-0.4,0.3l-0.5,0.3l-0.5,0.3l-0.5,0.3l-0.5,0.3l-0.5,0.3l-0.5,0.3
					l-0.5,0.3l-0.5,0.3l-0.5,0.3l-0.5,0.3l-0.5,0.3l-0.5,0.3l-0.5,0.3l-0.5,0.3l-0.5,0.3l-0.5,0.3l-0.5,0.3l-0.5,0.3l-0.5,0.3
					l-0.5,0.2l-0.5,0.2l-0.5,0.2L117,240l-0.5,0.2l-0.5,0.2l-0.5,0.2l-0.5,0.2l-0.5,0.2l-0.5,0.2l-0.5,0.2l-0.5,0.2l-0.4,0.1
					l-0.3,0.1l-0.5,0.1l-0.5,0.1l-0.5,0.1l-0.5,0.1l-0.5,0.1l-0.5,0.1L109,243l-0.5,0.1l-0.5,0.1l-0.5,0.1l-0.5,0.1l-0.5,0.1
					l-0.5,0.1l-0.5,0.1l-0.5,0.1l-0.5,0.1l-0.5,0.1l-0.5,0.1l-0.5,0.1l-0.5,0.1l-0.5,0.1l-0.5,0.1l-0.5,0.1l-0.5,0l-0.5,0l-0.5,0
					l-0.5,0l-0.5,0l-0.5,0l-0.5,0l-0.5,0l-0.5,0l-0.5,0l-0.5,0h-0.5l-0.5,0l-0.7,0l-0.7,0l-0.7,0l-0.7,0l-0.7,0l-0.7,0l-0.7-0.1
					l-0.7-0.1l-0.6-0.1l-0.7-0.1l-0.7-0.1l-0.6-0.1l-0.6-0.1l-0.6-0.1l-0.6-0.1l-0.6-0.1l-0.6-0.1l-0.6-0.1l-0.6-0.2l-0.6-0.2
					l-0.6-0.2l-0.6-0.2l-0.6-0.2l-0.6-0.2l-0.6-0.2l-0.6-0.2l-0.6-0.2l-0.6-0.2l-0.6-0.3l-0.6-0.2l-0.6-0.3l-0.6-0.3l-0.6-0.3
					l-0.6-0.3l-0.6-0.3l-0.6-0.3l-0.6-0.3l-0.6-0.3l-0.6-0.3l-0.6-0.3l-6.5-3.9l-13.7-6.2l-0.2-0.1l-0.2-0.1l-0.2-0.1l-0.2-0.1
					l-0.2-0.1l-0.2-0.1l-0.2-0.1l-0.2-0.1l-0.2-0.1l-0.2-0.1l-0.2-0.1l-0.2-0.1l-0.2-0.1l-0.2-0.1l-0.2-0.1l-0.2-0.1l-0.2-0.1
					l-0.2-0.1l-0.2-0.1l-0.2-0.1l-0.2-0.1l-0.2-0.1l-0.2-0.1l-0.2-0.1l-0.2-0.1l-0.2,0l-0.2-0.1l-0.2-0.1l-0.2,0l-0.2-0.1l-0.2,0
					l-0.2,0l-0.2-0.1l-0.2,0l-0.2,0l-0.2,0l-0.2,0l-0.2,0l-0.2,0l-0.2,0L42,225l-0.9-0.2l-0.9-0.2l-0.9-0.2l-0.9-0.2l-0.9-0.2
					l-0.9-0.2l-0.9-0.1l-0.9-0.1l-0.9-0.1l-0.9-0.1l-0.9-0.1l-0.9-0.1l-0.9-0.1l-0.9,0l-0.9,0l-0.9,0l-0.9,0l-0.9,0l-0.9,0l-0.9,0
					l-0.9,0l-0.9,0.1l-0.9,0.1l-0.9,0.1l-0.9,0.1l-0.9,0.1l-0.9,0.1l-0.9,0.1l-0.9,0.2l-0.9,0.2l-0.9,0.2l-0.9,0.2l-0.9,0.2
					l-0.9,0.2l-0.9,0.2l-0.9,0.3L9,225.8l-0.9,0.3l-0.9,0.3l-5.1,1.7l3.5-3.4l0.5-0.5l0.5-0.5l0.5-0.5l0.5-0.5l0.5-0.5l0.5-0.5
					l0.6-0.5l0.6-0.5l0.6-0.5l0.6-0.5l0.6-0.5l0.6-0.4l0.6-0.4l0.6-0.4l0.6-0.4l0.6-0.4l0.6-0.4l0.6-0.4l0.6-0.4l0.6-0.4l0.6-0.4
					l0.6-0.4l0.6-0.4l0.6-0.4l0.6-0.4l0.6-0.4l0.6-0.4l0.6-0.4l0.6-0.3l0.6-0.3l0.6-0.3l0.6-0.3l0.6-0.3l0.6-0.3l0.6-0.3L27,210
					l0.3-0.1l0.2-0.1l0.5-0.2l0.5-0.2l0.5-0.2l0.5-0.2l0.5-0.2l0.5-0.2l0.5-0.2l0.5-0.1l0.5-0.1l0.5-0.1l0.5-0.1l0.5-0.1l0.5-0.1
					l0.5-0.1l0.5-0.1l0.5-0.1l0.5-0.1l0.5-0.1l0.5-0.1l0.5-0.1l0.5-0.1l0.5-0.1l0.5-0.1l0.5-0.1l0.5-0.1l0.5-0.1l0.5-0.1l0.5-0.1
					l0.5-0.1l0.5-0.1l0.5-0.1l0.5,0l0.5,0l0.5,0l0.5,0H45l0.7,0l0.7,0l0.7,0l0.7,0h0.7h0.7l0.7,0l0,0L50.5,205.9z M111.8,242.2
					l0.5-0.2l0.1,0l0.2-0.1l0.5-0.1l0.5-0.2l0.5-0.2l-3.3,1.2l0.5-0.2l0,0L111.8,242.2z M348.1,213.6l1.1,0.5l1,0.6l0.9,0.7l0.8,0.8
					l0.7,0.9l0.6,1l0.5,1.1l0.4,1.1l0.3,1.2l0.1,1.2l0,1.3l-0.1,1.7l-0.1,1.1l-0.2,1.1l-0.3,1l-0.4,1l-0.5,0.9l-0.6,0.8l-0.7,0.8
					l-0.8,0.7l-0.8,0.6l-0.9,0.5l-0.9,0.5l-1,0.4l-1,0.3l-1.1,0.2l-1.1,0l-1.2-0.1l-1.2-0.2l-1.1-0.3l-1.1-0.4l-1-0.5l-1-0.6
					l-0.9-0.7l-0.8-0.8l-0.7-0.9l-0.6-1l-0.5-1l-0.4-1.1l-0.3-1.1l-0.2-1.2l-0.1-1.2v-1.6l0.1-1l0.1-1l0.2-1l0.3-0.9l0.4-0.9
					l0.5-0.8l0.6-0.8l0.6-0.7l0.7-0.6l0.8-0.6l0.8-0.5l0.9-0.4l0.9-0.3l1-0.2l1-0.1l1.5-0.1l1.3,0l1.2,0.1l1.2,0.3l0,0L348.1,213.6z
					 M27.7,209.6l-0.4,0.2l-0.2,0.1l-0.5,0.2l-0.5,0.2l-0.5,0.2l-0.5,0.2l4.5-1.9l-0.7,0.3l-0.7,0.3l0,0L27.7,209.6z M34.3,123.4
					l0.7,0l0.7,0l0.7,0l0.7,0l0.7,0.1l0.7,0.1l0.7,0.1l0.7,0.1l0.7,0.1l0.3,0l0.2,0l0.5,0.1l0.5,0.1l0.5,0.1l0.5,0.1l0.5,0.1
					l0.5,0.1l0.5,0.1l0.5,0.1l0.5,0.1l0.5,0.1l0.5,0.1l0.5,0.1l0.5,0.1l0.5,0.1l0.5,0.2l0.5,0.2l0.5,0.2l0.5,0.2l0.5,0.2l0.5,0.2
					l0.5,0.2l0.5,0.2l0.5,0.2l0.5,0.2l0.5,0.2l0.5,0.2l0.5,0.2l0.5,0.2l0.5,0.2l0.5,0.2l0.5,0.2l0.5,0.2l0.5,0.2l0.5,0.2l0.5,0.2
					l0,0l0.6,0.3l0.6,0.3l0.6,0.3l0.6,0.3l0.6,0.4l0.6,0.4l0.6,0.4l0.6,0.4l0.6,0.4l0.6,0.4l0.6,0.4l0.6,0.4l0.5,0.4l0.5,0.4
					l0.5,0.4l0.5,0.4l0.5,0.5l0.5,0.5l0.5,0.5l0.5,0.5l0.5,0.5l0.5,0.5l0.5,0.5l0.5,0.5l0.5,0.5l0.5,0.5l0.4,0.5l0.4,0.5l0.4,0.5
					l0.4,0.5l0.4,0.6l0.4,0.5l0.4,0.6l0.4,0.6l0.4,0.6l0.4,0.6l0.4,0.6l0.4,0.6l0.4,0.6l0.3,0.6l0.8,1.5L89,166.7l0.4,0.6l0.6,0.8
					l0.6,0.8l0.6,0.8l0.6,0.8l0.6,0.8l0.6,0.7l0.6,0.7l0.6,0.7l0.7,0.7l0.7,0.7l0.7,0.7l0.7,0.7l0.7,0.7l0.7,0.7l0.7,0.7l0.7,0.6
					l0.7,0.6l0.7,0.6l0.8,0.6l0.8,0.6l0.8,0.6l0.8,0.6l0.8,0.6l0.8,0.6l0.8,0.5l0.8,0.5l0.8,0.5l0.8,0.5l0.8,0.5l0.8,0.5l0.9,0.5
					l0.9,0.5l0.9,0.4l0.9,0.4l0.9,0.4l0.9,0.4l0.9,0.4l0.9,0.4l0.9,0.4l0.9,0.4l11.2,4.2l-13.9,1.6l-0.6,0.1l-0.6,0.1l-0.6,0l-0.6,0
					l-0.6,0l-0.6,0l-0.6,0l-0.6,0l-0.6,0l-0.6,0l-0.6,0l-0.6,0l-0.6,0l-0.6,0l-0.6,0h-0.6l-0.6,0l-0.6,0l-0.6,0l-0.6,0l-0.6,0
					l-0.6,0l-0.6,0l-0.6,0l-0.6,0l-0.6,0l-0.6-0.1l-0.6-0.1l-0.6-0.1l-0.6-0.1l-0.6-0.1l-0.6-0.1l-0.5-0.1l-0.6-0.1L98,196l-0.6-0.1
					l-0.4-0.1l-0.3-0.1l-0.5-0.1l-0.5-0.1l-0.5-0.1l-0.5-0.1l-0.5-0.1l-0.5-0.1l-0.5-0.1l-0.5-0.1l-0.5-0.1l-0.5-0.2l-0.5-0.2
					l-0.5-0.2l-0.5-0.2l-0.5-0.2l-0.5-0.2l-0.5-0.2l-0.5-0.2l-0.4-0.2l-0.5-0.2l-0.4-0.2l-0.4-0.2l-0.4-0.2l-0.4-0.2l-0.4-0.2
					l-0.4-0.2l-0.4-0.2l-0.4-0.2L84,191l-0.4-0.2l-0.4-0.2l-0.4-0.2l-0.4-0.2l-0.4-0.2l-0.4-0.2l-0.4-0.2l-0.4-0.3l-0.6-0.3
					l-0.6-0.4L79,188l-0.6-0.4l-0.5-0.4l-0.5-0.4l-0.5-0.4l-0.5-0.4l-0.5-0.4l-0.5-0.4l-0.5-0.4l-0.5-0.4l-0.5-0.4l-0.5-0.4
					l-0.5-0.4l-0.5-0.5l-0.5-0.5l-0.5-0.5l-0.5-0.5l-0.5-0.5l-0.5-0.5l-0.4-0.5l-0.4-0.5l-0.4-0.5l-0.4-0.5l-0.4-0.5l-0.4-0.5
					l-0.4-0.5l-0.4-0.5l-0.4-0.5l-0.4-0.5l-0.4-0.5l-0.4-0.6l-0.4-0.6l-0.4-0.6l-0.3-0.6l-0.3-0.6l-0.3-0.6l-0.3-0.6l-0.3-0.6
					l-3.5-6.7l-8.4-12.4l-0.1-0.1l-0.1-0.1l-0.1-0.1l-0.1-0.1l-0.1-0.1l-0.1-0.1l-0.1-0.1l-0.1-0.1l-0.1-0.1l-0.1-0.1l-0.1-0.1
					l-0.1-0.1l-0.1-0.1l-0.1-0.1l-0.1-0.1l-0.1-0.1l-0.1-0.1l-0.1-0.1l-0.1-0.1l-0.1-0.1l-0.1-0.1l-0.1-0.1l-0.1-0.1l-0.1-0.1
					l-0.1-0.1l-0.1-0.1L48,147l-0.1-0.1l-0.1-0.1l-0.1-0.1l-0.1-0.1l-0.1-0.1l-0.1-0.1l-0.1-0.1l-0.1-0.1l-0.1-0.1l-0.1-0.1
					l-0.1-0.1l-0.1-0.1l-0.1-0.1l-0.6-0.7l-0.6-0.6l-0.6-0.6l-0.6-0.6l-0.7-0.6l-0.7-0.6l-0.7-0.6l-0.7-0.6l-0.7-0.6l-0.7-0.6
					l-0.7-0.6l-0.7-0.5l-0.7-0.5l-0.7-0.5l-0.7-0.5l-0.8-0.5l-0.8-0.5l-0.8-0.5l-0.8-0.5l-0.8-0.5l-0.8-0.4l-0.8-0.4l-0.8-0.4
					l-0.8-0.4l-0.8-0.4l-0.8-0.4l-0.8-0.4l-0.8-0.4l-0.8-0.3l-0.8-0.3l-0.8-0.3l-0.9-0.3l-0.9-0.3l-0.9-0.3l-0.9-0.3l-0.9-0.3
					l-0.9-0.2l-0.9-0.2l-0.9-0.2l-0.9-0.2l-5.2-1.2l4.8-1.1l0.7-0.2l0.7-0.1l0.7-0.1l0.7-0.1l0.7-0.1l0.7-0.1l0.7-0.1l0.7-0.1
					l0.7-0.1l0.7-0.1l0.7-0.1l0.7-0.1l0.7-0.1l0.7-0.1l0.7-0.1l0.7-0.1l0.7,0l0.7,0l0.7,0l0.7,0l0.7,0l0.7,0l0.7,0h0.7h0.7l0.7,0
					l0,0L34.3,123.4z M96.9,195.8l0.1,0l0.2,0l0.5,0.1l0.5,0.1l0.5,0.1l-3.4-0.7l0.5,0.1l0.5,0.1l0,0L96.9,195.8z M276.9,186
					l-0.7-0.1l-0.4,0l-0.3,0l-0.5-0.1l-0.5-0.1l-0.5-0.1l-0.5-0.1l4.8,0.8l-0.7-0.1l0,0L276.9,186z M284.7,137l0.7,0l0.7,0l0.7,0.1
					l0.7,0.1l0.7,0.1l0.7,0.1l0.7,0.1l0.7,0.1l0.7,0.1l0.7,0.1l0.7,0.1l0.7,0.1l0.7,0.2l0.7,0.2l0.7,0.2l0.6,0.2l0.7,0.2l0.6,0.2
					l0.6,0.2l0.6,0.2l0.6,0.2l0.6,0.2l0.6,0.2l0.6,0.3l0.6,0.3l0.6,0.3l0.6,0.3l0.6,0.3l0.6,0.3l0.6,0.3l0.6,0.3l0.6,0.3l1.5,0.8
					l17.6,8.6l0.7,0.3l0.9,0.4l0.9,0.4l0.9,0.3l0.9,0.3l0.9,0.3l0.9,0.3l0.9,0.3l0.9,0.3l0.9,0.3l0.9,0.2l1,0.2l0.9,0.2l1,0.2l1,0.2
					l1,0.2l1,0.2l1,0.1l1,0.1l1,0.1l1,0.1l1,0.1l1,0.1l1,0.1l1,0l1,0l1,0l1,0l1,0l1,0l1,0l1,0l1-0.1l1-0.1l1-0.1l1-0.1l1-0.1l1-0.1
					l1-0.2l1-0.2l1-0.2l11.7-2.3l-11,8.7l-0.4,0.3l-0.4,0.3l-0.4,0.3l-0.5,0.3l-0.4,0.3l-0.5,0.3l-0.5,0.3l-0.5,0.3l-0.5,0.3
					l-0.5,0.3l-0.5,0.3l-0.5,0.3l-0.5,0.3l-0.5,0.3l-0.5,0.3l-0.5,0.3l-0.5,0.3l-0.5,0.3l-0.5,0.3l-0.5,0.3l-0.5,0.3l-0.5,0.3
					l-0.5,0.3l-0.5,0.2l-0.5,0.3l-0.5,0.2l-0.5,0.2l-0.5,0.2l-0.5,0.2l-0.5,0.2l-0.5,0.2l-0.5,0.2l-0.5,0.2l-0.5,0.2l-0.5,0.2
					l-0.5,0.2l-0.4,0.1l-0.3,0.1l-0.5,0.1l-0.5,0.1l-0.5,0.1l-0.5,0.1l-0.5,0.1l-0.5,0.1l-0.5,0.1l-0.5,0.1l-0.5,0.1l-0.5,0.1
					l-0.5,0.1l-0.5,0.1l-0.5,0.1l-0.5,0.1l-0.5,0.1l-0.5,0.1l-0.5,0.1l-0.5,0.1l-0.5,0.1l-0.5,0.1l-0.5,0.1l-0.5,0.1l-0.5,0.1
					l-0.5,0l-0.5,0l-0.5,0l-0.5,0l-0.5,0l-0.5,0l-0.5,0l-0.5,0l-0.5,0l-0.5,0l-0.5,0h-0.5h-0.5h-0.7l-0.7,0l-0.7,0l-0.7,0l-0.7,0
					l-0.7,0l-0.7-0.1l-0.7-0.1l-0.6-0.1l-0.7-0.1l-0.7-0.1l-0.6-0.1l-0.6-0.1l-0.6-0.1l-0.6-0.1l-0.6-0.1l-0.6-0.1l-0.6-0.1
					l-0.6-0.2l-0.6-0.2l-0.6-0.2l-0.6-0.2l-0.6-0.2l-0.6-0.2L313,173l-0.6-0.2l-0.6-0.2l-0.6-0.2l-0.6-0.2l-0.6-0.3l-0.6-0.3
					l-0.6-0.3l-0.6-0.3l-0.6-0.3l-0.6-0.3l-0.6-0.3l-0.6-0.3l-0.6-0.3l-0.6-0.3l-0.6-0.3l-6.5-3.9l-13.7-6.2l-0.2-0.1l-0.2-0.1
					l-0.2-0.1l-0.2-0.1l-0.2-0.1l-0.2-0.1l-0.2-0.1l-0.2-0.1l-0.2-0.1l-0.2-0.1l-0.2-0.1l-0.2-0.1l-0.2-0.1l-0.2-0.1l-0.2-0.1
					l-0.2-0.1l-0.2-0.1l-0.2-0.1l-0.2-0.1l-0.2-0.1l-0.2-0.1l-0.2-0.1l-0.2-0.1l-0.2-0.1l-0.2-0.1l-0.2-0.1l-0.2,0l-0.2-0.1l-0.2,0
					l-0.2-0.1l-0.2,0l-0.2,0l-0.2-0.1l-0.2,0l-0.2,0l-0.2,0l-0.2,0l-0.2,0l-0.2,0l-0.2,0l-0.9-0.2l-0.9-0.2l-0.9-0.2l-0.9-0.2
					l-0.9-0.2l-0.9-0.2l-0.9-0.2l-0.9-0.1l-0.9-0.1l-0.9-0.1l-0.9-0.1l-0.9-0.1l-0.9-0.1l-0.9-0.1l-0.9,0l-0.9,0l-0.9,0l-0.9,0
					l-0.9,0l-0.9,0l-0.9,0l-0.9,0l-0.9,0.1l-0.9,0.1l-0.9,0.1l-0.9,0.1l-0.9,0.1l-0.9,0.1l-0.9,0.1l-0.9,0.2l-0.9,0.2l-0.9,0.2
					l-0.9,0.2l-0.9,0.2l-0.9,0.2l-0.9,0.2l-0.9,0.2l-0.9,0.3l-0.9,0.3l-0.9,0.3l-5.1,1.7l3.5-3.4l0.5-0.5l0.5-0.5l0.5-0.5l0.5-0.5
					l0.5-0.5l0.5-0.5l0.6-0.5l0.6-0.5l0.6-0.5l0.6-0.5l0.6-0.5l0.6-0.5l0.6-0.4l0.6-0.4l0.6-0.4l0.6-0.4l0.6-0.4l0.6-0.4l0.6-0.4
					l0.6-0.4l0.6-0.4l0.6-0.4l0.6-0.4l0.6-0.4l0.6-0.4l0.6-0.4l0.6-0.4l0.6-0.4l0.6-0.3l0.6-0.4l0.6-0.3l0.6-0.3l0.6-0.3l0.6-0.3
					l0.6-0.3l0.7-0.3l0.3-0.1l0.2-0.1l0.5-0.2l0.5-0.2l0.5-0.2l0.5-0.2l0.5-0.2l0.5-0.2l0.5-0.2l0.5-0.1l0.5-0.1l0.5-0.1l0.5-0.1
					l0.5-0.1l0.5-0.1l0.5-0.1l0.5-0.1l0.5-0.1l0.5-0.1l0.5-0.1l0.5-0.1l0.5-0.1l0.5-0.1l0.5-0.1l0.5-0.1l0.5-0.1l0.5-0.1l0.5-0.1
					l0.5-0.1l0.5-0.1l0.5-0.1l0.5,0l0.5-0.1l0.5,0l0.5,0l0.5,0l0.5,0l0.1,0l0.7,0l0.7,0l0.7,0l0.7,0h0.7h0.7l0.7,0l0,0L284.7,137z
					 M346.1,173.3l0.5-0.2l0.1-0.1l0.2-0.1l0.5-0.1l0.5-0.2l0.5-0.2l-3.3,1.2l0.5-0.2l0,0L346.1,173.3z M38.4,147.6l1.1,0.5l1,0.6
					l0.9,0.7l0.8,0.8l0.7,0.9l0.6,1l0.5,1.1l0.4,1.1l0.3,1.2l0.1,1.2l0,1.3l-0.1,1.7l-0.1,1.1l-0.2,1.1l-0.3,1l-0.4,1l-0.5,0.9
					l-0.6,0.8l-0.7,0.8l-0.8,0.7l-0.8,0.6l-0.9,0.5l-0.9,0.5l-1,0.4l-1,0.3l-1.1,0.2l-1.1,0l-1.2-0.1l-1.2-0.2l-1.1-0.3l-1.1-0.4
					l-1-0.5l-1-0.6l-0.9-0.7l-0.8-0.8l-0.7-0.9l-0.6-1l-0.5-1l-0.4-1.1l-0.3-1.1l-0.2-1.2l-0.1-1.2v-1.6l0.1-1l0.1-1l0.2-1l0.3-0.9
					l0.4-0.9l0.5-0.8l0.6-0.8l0.6-0.7l0.7-0.6l0.8-0.6l0.8-0.5l0.9-0.4l0.9-0.3l1-0.2l1-0.1l1.5-0.1l1.3,0l1.2,0.1l1.2,0.3l0,0
					L38.4,147.6z M71.6,44.9l0.7,0.2l0.7,0.2l0.7,0.2l0.7,0.3l0.7,0.3l0.7,0.3l0.7,0.3l0.7,0.3l0.7,0.3l0.7,0.3l0.7,0.3l0.7,0.3
					l0.7,0.3l0.6,0.3l0.6,0.3l0.6,0.3l0.6,0.3l0.6,0.3l0.6,0.3l0.6,0.4l0.6,0.4l0.6,0.4l0.6,0.4l0.6,0.4l0.6,0.4l0.6,0.4l0.6,0.4
					l0.6,0.4l0.6,0.4l0.6,0.4l0.6,0.4l0.6,0.4l0.6,0.4l0.6,0.4l0.3,0.2l0.2,0.2l0.4,0.3l0.4,0.3l0.4,0.3l0.4,0.4l0.4,0.3l0.4,0.4
					l0.4,0.4l0.4,0.4l0.4,0.4l0.4,0.4l0.4,0.4l0.3,0.4l0.3,0.4l0.3,0.4l0.3,0.4l0.3,0.4l0.3,0.4l0.3,0.4l0.3,0.4l0.3,0.4l0.3,0.4
					l0.3,0.4l0.3,0.4l0.3,0.4l0.3,0.4l0.3,0.4l0.3,0.4l0.3,0.4l0.3,0.4l0.3,0.4l0.3,0.4l0.3,0.4l0.3,0.4l0.3,0.4l0.3,0.4l0,0
					l0.4,0.6l0.3,0.6l0.3,0.6l0.3,0.6l0.3,0.6l0.3,0.6l0.3,0.6l0.3,0.6l0.3,0.6l0.3,0.6l0.3,0.6l0.3,0.6l0.3,0.6l0.2,0.6l0.2,0.6
					l0.2,0.6l0.2,0.6l0.2,0.6l0.2,0.7l0.2,0.6l0.2,0.7l0.2,0.7l0.2,0.7l0.2,0.7l0.1,0.7l0.1,0.7l0.1,0.7l0.1,0.7l0.1,0.7l0.1,0.7
					l0.1,0.7l0.1,0.7l0.1,0.7l0.1,0.7l0,0.7l0,0.7l0,0.7l0,0.7v0.7v0.7l0,1.7l0.7,19.6l0.1,0.7l0.1,1l0.1,1l0.1,1l0.1,1l0.2,1l0.2,1
					l0.2,1l0.2,1l0.2,1l0.2,1l0.2,1l0.3,0.9l0.3,0.9l0.3,0.9l0.3,0.9l0.3,0.9l0.3,0.9l0.3,0.9l0.3,0.9l0.4,0.9l0.4,0.9l0.4,0.9
					l0.4,0.9l0.4,0.9l0.4,0.9l0.4,0.9l0.5,0.9l0.5,0.9l0.5,0.8l0.5,0.8l0.5,0.8l0.5,0.8l0.5,0.8l0.6,0.8l0.6,0.8l0.6,0.8l0.6,0.8
					l0.6,0.8l0.6,0.8l0.6,0.8l7.6,9.2l-12.8-5.6l-0.5-0.2l-0.5-0.2l-0.5-0.2l-0.5-0.2l-0.5-0.2l-0.5-0.2l-0.5-0.2l-0.5-0.3l-0.5-0.3
					l-0.5-0.3l-0.5-0.3l-0.5-0.3l-0.5-0.3l-0.5-0.3l-0.5-0.3l-0.5-0.3l-0.5-0.3l-0.5-0.3l-0.5-0.3l-0.5-0.3l-0.5-0.3l-0.5-0.3
					l-0.5-0.3l-0.5-0.3l-0.5-0.3l-0.5-0.3l-0.4-0.3l-0.5-0.3l-0.4-0.3l-0.4-0.3l-0.4-0.3l-0.4-0.3l-0.4-0.3l-0.4-0.4l-0.4-0.4
					l-0.4-0.4l-0.3-0.3l-0.2-0.2l-0.3-0.3l-0.3-0.3l-0.3-0.3l-0.3-0.3l-0.3-0.4l-0.3-0.4l-0.3-0.4l-0.3-0.4l-0.3-0.4L102,143
					l-0.3-0.4l-0.3-0.4l-0.3-0.4l-0.3-0.4l-0.3-0.4l-0.3-0.4l-0.3-0.4l-0.3-0.4l-0.3-0.4l-0.3-0.4l-0.3-0.4l-0.3-0.4l-0.3-0.4
					l-0.3-0.4l-0.3-0.4l-0.3-0.4l-0.3-0.4l-0.3-0.4l-0.3-0.4l-0.3-0.4l-0.2-0.4l-0.2-0.4l-0.2-0.4l-0.2-0.4l-0.2-0.4l-0.2-0.4
					l-0.3-0.6l-0.3-0.6l-0.3-0.6l-0.3-0.6l-0.3-0.6l-0.3-0.6l-0.3-0.6l-0.2-0.6l-0.2-0.6l-0.2-0.6l-0.2-0.6l-0.2-0.6l-0.2-0.6
					l-0.2-0.6l-0.2-0.6l-0.2-0.6l-0.2-0.6l-0.2-0.6l-0.2-0.6l-0.1-0.6l-0.1-0.6l-0.1-0.6l-0.1-0.6l-0.1-0.6l-0.1-0.6l-0.1-0.6
					l-0.1-0.7l-0.1-0.6l-0.1-0.7l-0.1-0.7l0-0.7l0-0.7l0-0.7l0-0.7l0-0.7l0-0.7v-0.7l0-0.7l0-0.7l0-0.7l0.4-7.6l-1-15l0-0.2l0-0.2
					l0-0.2l0-0.2l0-0.2l0-0.2l0-0.2l0-0.2l0-0.2l0-0.2l0-0.2l0-0.2l0-0.2l0-0.2l0-0.2l0-0.2l0-0.2l0-0.2l0-0.2l0-0.2l0-0.2l0-0.2
					l0-0.2l0-0.2l0-0.2l0-0.2l0-0.2l0-0.2l0-0.2l0-0.2l0-0.2l0-0.2l0-0.2l0-0.2l0-0.2l0-0.2l0-0.2l0-0.2l0-0.2l0-0.2l-0.2-0.9
					l-0.2-0.9l-0.2-0.9L86.5,74l-0.3-0.9l-0.3-0.9l-0.3-0.9l-0.3-0.9L85,69.7l-0.3-0.8L84.4,68L84,67.2l-0.4-0.8l-0.4-0.8l-0.4-0.8
					l-0.4-0.8l-0.4-0.8l-0.4-0.8l-0.4-0.8l-0.4-0.8L80.3,60l-0.5-0.8l-0.5-0.8l-0.5-0.8l-0.5-0.7l-0.5-0.7l-0.5-0.7l-0.5-0.7
					L76.2,54l-0.6-0.7l-0.6-0.7l-0.6-0.7l-0.6-0.7l-0.6-0.7l-0.6-0.7l-0.6-0.7l-0.6-0.7l-0.6-0.6l-0.6-0.6l-0.7-0.6L65.6,43l4.7,1.5
					l0.7,0.2l0,0L71.6,44.9z M342.5,127.7l1.1,0.5l1,0.6l0.9,0.7l0.8,0.8l0.7,0.9l0.6,1l0.5,1.1l0.4,1.1l0.3,1.2l0.1,1.2l0,1.3
					l-0.1,1.7l-0.1,1.1l-0.2,1.1l-0.3,1l-0.4,1l-0.5,0.9l-0.6,0.8l-0.7,0.8l-0.8,0.7l-0.8,0.6l-0.9,0.6l-0.9,0.5l-1,0.4l-1,0.3
					l-1.1,0.2l-1.1,0l-1.2-0.1l-1.2-0.2l-1.1-0.3l-1.1-0.4l-1-0.5l-1-0.6l-0.9-0.7l-0.8-0.8l-0.7-0.9l-0.6-1l-0.5-1l-0.4-1.1
					l-0.3-1.1l-0.2-1.2l-0.1-1.2V137l0.1-1l0.1-1l0.2-1l0.3-0.9l0.4-0.9l0.5-0.8l0.6-0.8l0.6-0.7l0.7-0.6l0.8-0.6l0.8-0.5l0.9-0.4
					l0.9-0.3l1-0.2l1-0.1l1.5-0.1l1.3,0l1.2,0.1l1.2,0.3l0,0L342.5,127.7z M105.4,146.7l0.1,0.1l0.1,0.1l0.4,0.3l0.4,0.3l0.4,0.3
					l-2.6-2.3l0.4,0.4l0.4,0.4l0,0L105.4,146.7z M261.9,140.7l-0.4,0.2l-0.2,0.1l-0.5,0.2l-0.5,0.2l-0.5,0.2l-0.5,0.2l4.5-1.9
					l-0.7,0.3l-0.7,0.3l0,0L261.9,140.7z M161.1,5.9l0.5,0.5l0.5,0.6l0.5,0.6l0.5,0.6l0.5,0.6l0.5,0.6l0.5,0.6l0.4,0.6l0.4,0.6
					l0.4,0.6l0.4,0.6l0.4,0.6l0.4,0.6l0.4,0.6l0.4,0.6l0.4,0.6l0.4,0.6l0.4,0.6l0.4,0.6l0.4,0.6l0.4,0.6l0.4,0.6l0.4,0.6l0.4,0.6
					l0.4,0.6l0.3,0.6l0.3,0.6l0.3,0.6l0.3,0.6l0.3,0.6l0.3,0.6l0.3,0.7l0.3,0.7l0.3,0.7l0.1,0.3l0.1,0.2l0.2,0.5l0.2,0.5l0.2,0.5
					l0.2,0.5l0.1,0.5l0.1,0.5l0.1,0.5l0.1,0.5l0.1,0.5l0.1,0.5l0.1,0.5l0.1,0.5l0.1,0.5l0.1,0.5l0.1,0.5l0.1,0.5l0.1,0.5l0.1,0.5
					l0.1,0.5l0.1,0.5l0.1,0.5l0.1,0.5l0.1,0.5l0.1,0.5l0.1,0.5l0.1,0.5l0.1,0.5l0,0.5l0.1,0.5l0,0.5l0,0.5l0,0.5l0,0.5l0,0.5l0,0.5
					v0.1l0,0.7l0,0.7v0.7v0.7l0,0.7l0,0.7l0,0.7l0,0.7l0,0.7l-0.1,0.7l-0.1,0.7l-0.1,0.7l-0.1,0.7l-0.1,0.7l-0.1,0.7l-0.1,0.7
					l-0.1,0.7l-0.1,0.7l-0.1,0.7l-0.2,0.7l-0.2,0.7l-0.2,0.6l-0.2,0.7l-0.2,0.7l-0.2,0.6l-0.2,0.6l-0.2,0.6l-0.2,0.6l-0.2,0.6
					l-0.3,0.6l-0.3,0.6l-0.3,0.6l-0.3,0.6l-0.3,0.6l-0.3,0.6l-0.3,0.6l-0.3,0.6l-0.3,0.6l-0.3,0.6l-0.3,0.6l-0.9,1.5l-9,17.4
					l-0.3,0.6l-0.4,0.9l-0.4,0.9l-0.4,0.9l-0.4,0.9l-0.3,0.9l-0.3,0.9l-0.3,0.9l-0.3,0.9l-0.3,0.9l-0.3,0.9l-0.3,0.9l-0.2,0.9
					l-0.2,1l-0.2,0.9l-0.2,1l-0.2,1l-0.2,1l-0.2,1l-0.1,1l-0.1,1l-0.1,1l-0.1,1l-0.1,1l-0.1,1l0,1l0,1l0,1l0,1v1l0,1l0,1l0,1l0.1,1
					l0.1,1l0.1,1l0.1,1l0.1,1l0.1,1l0.1,1l0.2,1l2.1,11.8l-8.4-11.2l-0.3-0.4l-0.3-0.5l-0.3-0.4l-0.3-0.5l-0.3-0.5l-0.3-0.5
					l-0.3-0.5l-0.3-0.5l-0.3-0.5l-0.3-0.5l-0.3-0.5l-0.3-0.5l-0.3-0.5l-0.3-0.5l-0.3-0.5l-0.3-0.5l-0.3-0.5l-0.3-0.5l-0.3-0.5
					l-0.3-0.5l-0.3-0.5l-0.2-0.5l-0.2-0.5l-0.2-0.5l-0.2-0.5l-0.2-0.5l-0.2-0.5l-0.2-0.5l-0.2-0.5l-0.2-0.5l-0.2-0.5l-0.2-0.5
					l-0.2-0.5l-0.2-0.5l-0.2-0.5l-0.2-0.5l-0.1-0.4l-0.1-0.3l-0.1-0.5l-0.1-0.5l-0.1-0.5l-0.1-0.5l-0.1-0.5l-0.1-0.5l-0.1-0.5
					l-0.1-0.5l-0.1-0.5l-0.1-0.5l-0.1-0.5l-0.1-0.5l-0.1-0.5l-0.1-0.5l-0.1-0.5l-0.1-0.5l-0.1-0.5l-0.1-0.5l-0.1-0.5l-0.1-0.5
					l-0.1-0.5l0-0.5l0-0.5l0-0.5l0-0.5l0-0.5l0-0.5l0-0.5l0-0.5l0-0.5l0-0.5l0-0.5v-0.5v-0.5v-0.5l0-0.5l0-0.7l0-0.7l0-0.7l0-0.7
					l0.1-0.7l0.1-0.7l0.1-0.7l0.1-0.7l0.1-0.7l0.1-0.6l0.1-0.6l0.1-0.6l0.1-0.6l0.1-0.6l0.1-0.6l0.2-0.6l0.2-0.6l0.2-0.6l0.2-0.6
					l0.2-0.6l0.2-0.6l0.2-0.6l0.2-0.6l0.2-0.6l0.2-0.6l0.2-0.6l0.2-0.6l0.3-0.6l0.3-0.6l0.3-0.6l0.3-0.6l0.3-0.6l0.3-0.6l0.3-0.6
					l0.3-0.6l0.3-0.6l0.3-0.6l0.3-0.6l0.3-0.6l0.3-0.6l4-6.4l6.5-13.5l0.1-0.2l0.1-0.2l0.1-0.2l0.1-0.2l0.1-0.2l0.1-0.2l0.1-0.2
					l0.1-0.2l0.1-0.2L157,47l0.1-0.2l0.1-0.2l0.1-0.2l0.1-0.2l0.1-0.2l0.1-0.2l0.1-0.2l0.1-0.2l0.1-0.2l0.1-0.2l0.1-0.2l0.1-0.2
					l0.1-0.2l0.1-0.2l0.1-0.2l0.1-0.2l0.1-0.2l0.1-0.2l0.1-0.2l0-0.2l0.1-0.2l0.1-0.2l0-0.2l0.1-0.2l0-0.2l0.1-0.2l0-0.2l0-0.2
					l0.1-0.2l0-0.2l0.2-0.9l0.2-0.9l0.2-0.9l0.2-0.9l0.2-0.9l0.2-0.9l0.2-0.9l0.2-0.9l0.1-0.9l0.1-0.9l0.1-0.9l0.1-0.9l0.1-0.9
					l0.1-0.9l0.1-0.9l0-0.9l0-0.9l0-0.9l0-0.9l0-0.9l0-0.9l0-0.9l0-0.9l-0.1-0.9l-0.1-0.9l-0.1-0.9l-0.1-0.9l-0.1-0.9l-0.1-0.9
					l-0.1-0.9l-0.1-0.9l-0.2-0.9l-0.2-0.9l-0.2-0.9l-0.2-0.9l-0.2-0.9L159.2,9l-0.2-0.9l-0.3-0.9l-0.3-0.9l-1.6-5.1l3.3,3.6l0.5,0.5
					l0,0L161.1,5.9z M331,69.4l-0.2,0.7l-0.2,0.7l-0.2,0.7l-0.2,0.7l-0.2,0.7l-0.2,0.7l-0.2,0.7l-0.3,0.7l-0.3,0.7l-0.3,0.7
					l-0.3,0.7l-0.3,0.7l-0.3,0.7l-0.3,0.7l-0.3,0.7l-0.3,0.7l-0.3,0.6l-0.3,0.6l-0.3,0.6l-0.3,0.6l-0.3,0.6l-0.3,0.6l-0.3,0.6
					l-0.4,0.6l-0.4,0.6l-0.4,0.6l-0.4,0.6l-0.4,0.6l-0.4,0.6l-0.4,0.6l-0.4,0.6l-0.4,0.6l-0.4,0.6l-0.4,0.6l-0.2,0.3l-0.2,0.2
					l-0.3,0.4l-0.3,0.4l-0.3,0.4l-0.3,0.4l-0.3,0.4l-0.3,0.4l-0.3,0.4l-0.4,0.4l-0.4,0.4l-0.4,0.4l-0.4,0.4l-0.4,0.4l-0.4,0.4
					l-0.4,0.4l-0.4,0.4l-0.4,0.3l-0.4,0.3l-0.4,0.3l-0.4,0.3l-0.4,0.3l-0.4,0.3l-0.4,0.3l-0.4,0.3l-0.4,0.3l-0.4,0.3l-0.4,0.3
					l-0.4,0.3l-0.4,0.3l-0.4,0.3l-0.4,0.3l-0.4,0.3L308,103l-0.4,0.3l-0.4,0.3l-0.4,0.3l0,0l-0.6,0.4l-0.6,0.4l-0.6,0.4l-0.6,0.3
					l-0.6,0.3l-0.6,0.3l-0.6,0.3l-0.6,0.3l-0.6,0.3l-0.6,0.3l-0.6,0.3l-0.6,0.3l-0.6,0.3l-0.6,0.3l-0.6,0.2l-0.6,0.2l-0.6,0.2
					l-0.6,0.2l-0.6,0.2l-0.6,0.2l-0.6,0.2l-0.7,0.2l-0.6,0.2l-0.7,0.2l-0.7,0.2l-0.7,0.2l-0.7,0.1l-0.7,0.1l-0.7,0.1l-0.7,0.1
					l-0.7,0.1l-0.7,0.1l-0.7,0.1l-0.7,0.1l-0.7,0.1l-0.7,0.1l-0.7,0l-0.7,0l-0.7,0l-0.7,0l-1.7,0l-19.6,1.4l-0.7,0.1l-1,0.1l-1,0.1
					l-1,0.1l-1,0.2l-1,0.2l-1,0.2l-1,0.2l-1,0.2l-0.9,0.2l-0.9,0.3l-0.9,0.3l-0.9,0.3l-0.9,0.3l-0.9,0.3l-0.9,0.3l-0.9,0.3l-0.9,0.3
					l-0.9,0.4l-0.9,0.4l-0.9,0.4l-0.9,0.4l-0.9,0.4l-0.9,0.4l-0.9,0.4l-0.9,0.5l-0.9,0.5l-0.9,0.5l-0.8,0.5l-0.8,0.5l-0.8,0.5
					l-0.8,0.5l-0.8,0.5l-0.8,0.6l-0.8,0.6l-0.8,0.6l-0.8,0.6l-0.8,0.6l-0.8,0.6l-0.8,0.6l-0.7,0.6l-9,7.8l5.2-13l0.2-0.5l0.2-0.5
					l0.2-0.5l0.2-0.5l0.2-0.5l0.2-0.5l0.2-0.5l0.2-0.5l0.2-0.5l0.2-0.5l0.3-0.5l0.3-0.5l0.3-0.5l0.3-0.5l0.3-0.5l0.3-0.5l0.3-0.5
					l0.3-0.5l0.3-0.5l0.3-0.5l0.3-0.5l0.3-0.5l0.3-0.5l0.3-0.5l0.3-0.5l0.3-0.5l0.3-0.5l0.3-0.5l0.3-0.5l0.3-0.5l0.3-0.5l0.3-0.4
					l0.3-0.4l0.3-0.4l0.3-0.4l0.4-0.4l0.3-0.3l0.2-0.2l0.3-0.4l0.3-0.4l0.3-0.3l0.3-0.4l0.3-0.3l0.3-0.3l0.4-0.3l0.3-0.3l0.4-0.3
					l0.4-0.3l0.4-0.3l0.4-0.3l0.4-0.3l0.4-0.3l0.4-0.3l0.4-0.3l0.4-0.3l0.4-0.3l0.4-0.3l0.4-0.3l0.4-0.3l0.4-0.3l0.4-0.3l0.4-0.3
					l0.4-0.3l0.4-0.3l0.4-0.3l0.4-0.3l0.4-0.3l0.4-0.3l0.4-0.3l0.4-0.3l0.4-0.3l0.4-0.2l0.4-0.3l0.4-0.2l0.6-0.3l0.6-0.3l0.6-0.3
					l0.6-0.3l0.6-0.3l0.6-0.3l0.6-0.3l0.6-0.3l0.6-0.3l0.6-0.3l0.6-0.2l0.6-0.2l0.6-0.2l0.6-0.2l0.6-0.2l0.6-0.2l0.6-0.2l0.6-0.2
					l0.6-0.2l0.6-0.2l0.6-0.2l0.6-0.1l0.6-0.1l0.6-0.1l0.6-0.1l0.6-0.1l0.6-0.1l0.7-0.1l0.6-0.1l0.7-0.1l0.7-0.1l0.7-0.1l0.7-0.1
					l0.7,0l0.7,0l0.7,0l0.7,0l0.7,0h0.7h0.7l7.6,0.1l14.9-1.4l0.2,0l0.2,0l0.2,0l0.2,0l0.2,0l0.2,0l0.2,0l0.2,0l0.2,0l0.2,0l0.2,0
					l0.2,0l0.2,0l0.2,0l0.2,0l0.2,0l0.2,0l0.2,0l0.2,0l0.2,0l0.2,0l0.2,0l0.2,0l0.2,0l0.2,0l0.2,0l0.2,0l0.2,0l0.2,0l0.2,0l0.2,0
					l0.2,0l0.2,0l0.2,0l0.2,0l0.2,0l0.2,0l0.2,0l0.2,0l0.2,0l0.9-0.2l0.9-0.3l0.9-0.3l0.9-0.3l0.9-0.3l0.9-0.3l0.9-0.3l0.8-0.3
					l0.8-0.3l0.8-0.4l0.8-0.4l0.8-0.4l0.8-0.4l0.8-0.4l0.8-0.4l0.8-0.4l0.8-0.4l0.8-0.5l0.8-0.5l0.8-0.5l0.8-0.5l0.8-0.5l0.7-0.5
					l0.7-0.5l0.7-0.5l0.7-0.5l0.7-0.5l0.7-0.6l0.7-0.6l0.7-0.6l0.7-0.6l0.7-0.6l0.7-0.6l0.7-0.6l0.6-0.6l0.6-0.6l0.6-0.6l0.6-0.7
					l0.6-0.7l0.6-0.7l3.5-4.1l-1.3,4.7l-0.2,0.7l0,0L331,69.4z M251.5,13.7l0.2,0.7l0.2,0.7l0.2,0.7l0.2,0.7l0.2,0.7l0.2,0.7
					l0.2,0.7l0.1,0.7l0.1,0.7l0.1,0.7l0.1,0.7l0.1,0.7l0.1,0.7l0.1,0.7l0.1,0.7l0.1,0.7l0.1,0.7l0.1,0.7l0.1,0.7l0.1,0.7l0.1,0.7
					l0.1,0.7l0,0.7l0,0.7l0,0.7l0,0.7l0,0.7l0,0.7l0,0.7v0.7v0.7l0,0.7l0,0.7l0,0.7l0,0.5l0,0.4l-0.1,0.5l-0.1,0.5l-0.1,0.5
					l-0.1,0.5l-0.1,0.5l-0.1,0.5l-0.1,0.5l-0.1,0.5l-0.1,0.5l-0.1,0.5l-0.1,0.5l-0.1,0.5l-0.1,0.5l-0.1,0.5l-0.1,0.5l-0.1,0.5
					l-0.1,0.5l-0.1,0.5l-0.1,0.5l-0.1,0.5l-0.2,0.5l-0.1,0.5l-0.2,0.5l-0.2,0.5l-0.2,0.5l-0.2,0.5l-0.2,0.5l-0.2,0.5l-0.2,0.5
					l-0.2,0.5l-0.2,0.5l-0.2,0.5l-0.2,0.5l-0.2,0.5l-0.2,0.5l0,0.1l-0.3,0.6l-0.3,0.6l-0.3,0.6l-0.3,0.6l-0.3,0.6l-0.3,0.6l-0.3,0.6
					l-0.4,0.6l-0.4,0.6l-0.4,0.6l-0.4,0.6l-0.4,0.6l-0.4,0.5l-0.4,0.5l-0.4,0.5l-0.4,0.5l-0.4,0.5l-0.4,0.5l-0.4,0.5l-0.4,0.5
					l-0.5,0.5l-0.5,0.5l-0.5,0.5l-0.5,0.5l-0.5,0.5l-0.5,0.5l-0.5,0.4l-0.5,0.4l-0.5,0.4l-0.5,0.4l-0.5,0.4l-0.5,0.4l-0.5,0.4
					l-0.6,0.4l-0.6,0.4l-0.6,0.4l-0.6,0.4l-0.6,0.3l-0.6,0.3l-0.6,0.3l-2,1.1l-16.3,10.3l-1,0.7l-0.8,0.6l-0.8,0.6l-0.8,0.6
					l-0.8,0.6l-0.7,0.6l-0.7,0.6l-0.7,0.6l-0.7,0.6l-0.7,0.7l-0.7,0.7l-0.7,0.7l-0.7,0.7l-0.6,0.7l-0.6,0.7l-0.6,0.7l-0.6,0.7
					l-0.6,0.7l-0.6,0.8l-0.6,0.8l-0.6,0.8l-0.6,0.8l-0.5,0.8l-0.5,0.8l-0.5,0.8l-0.5,0.8l-0.5,0.8l-0.5,0.8l-0.5,0.8l-0.5,0.8
					l-0.4,0.9l-0.4,0.9l-0.4,0.9l-0.4,0.9l-0.4,0.9l-0.4,0.9l-0.4,0.9l-0.3,0.9l-0.3,0.9l-0.3,0.9l-0.3,0.9l-3.5,11.4l-3-14.5
					l-0.1-0.5l-0.1-0.5l-0.1-0.5l-0.1-0.5l-0.1-0.5l-0.1-0.5l-0.1-0.5l-0.1-0.5l-0.1-0.5l-0.1-0.5l-0.1-0.5l0-0.5l-0.1-0.6l0-0.5
					l0-0.5l0-0.6l0-0.5l0-0.5l0-0.6l0-0.5l0-0.6l0-0.5v-0.6v-0.5v-0.6l0-0.5l0-0.6l0-0.5l0-0.6l0-0.5l0-0.6l0-0.5l0-0.5l0-0.6
					l0.1-0.5l0-0.6l0.1-0.5l0.1-0.4l0.1-0.5l0.1-0.5l0.1-0.5l0.1-0.5l0.1-0.5l0.1-0.5l0.1-0.5l0.1-0.5l0.1-0.5l0.1-0.5l0.1-0.5
					l0.1-0.5l0.1-0.5l0.1-0.5l0.1-0.5l0.1-0.5l0.2-0.5l0.2-0.5l0.2-0.4l0.2-0.5l0.2-0.4l0.2-0.4l0.2-0.4l0.2-0.4l0.2-0.4l0.2-0.4
					l0.2-0.4l0.2-0.4l0.2-0.4l0.2-0.4l0.2-0.4l0.2-0.4l0.2-0.4l0.2-0.4l0.2-0.4l0.2-0.4l0.3-0.6l0.3-0.6l0.3-0.6l0.3-0.6l0.4-0.6
					l0.4-0.5l0.4-0.5l0.4-0.5l0.4-0.5l0.4-0.5l0.4-0.5l0.4-0.5l0.4-0.5l0.4-0.5l0.4-0.5l0.4-0.5l0.4-0.5l0.4-0.5l0.5-0.5l0.5-0.5
					l0.5-0.5l0.5-0.4l0.5-0.4l0.5-0.4l0.5-0.4l0.5-0.4l0.5-0.4l0.5-0.4l0.5-0.4l0.5-0.4l0.5-0.4l0.5-0.4l0.5-0.4l0.5-0.4l0.6-0.3
					l0.6-0.3l0.6-0.3l0.6-0.3l0.6-0.3l0.6-0.3l7.2-3.7l12.5-8.5l0.1-0.1l0.1-0.1l0.1-0.1l0.1-0.1l0.1-0.1l0.1-0.1l0.1-0.1l0.1-0.1
					l0.1-0.1l0.1-0.1l0.1-0.1l0.1-0.1l0.1-0.1l0.1-0.1l0.1-0.1l0.1-0.1l0.1-0.1l0.1-0.1l0.1-0.1l0.1-0.1l0.1-0.1l0.1-0.1l0.1-0.1
					l0.1-0.1l0.1-0.1l0.1-0.1l0.1-0.1l0.1-0.1l0.1-0.1l0.1-0.1l0.1-0.1l0.1-0.1l0.1-0.1l0.1-0.1l0.1-0.1l0.1-0.1l0.1-0.1l0.1-0.1
					l0.1-0.1l0.1-0.1l0.1-0.1l0.6-0.6l0.6-0.6l0.6-0.6l0.6-0.6l0.6-0.7l0.6-0.7l0.6-0.7l0.6-0.7l0.5-0.7l0.5-0.7l0.5-0.7l0.5-0.7
					l0.5-0.7l0.5-0.7l0.5-0.7l0.5-0.7l0.5-0.8l0.4-0.8l0.4-0.8l0.4-0.8l0.4-0.8l0.4-0.8l0.4-0.8l0.4-0.8l0.3-0.8l0.3-0.8l0.3-0.8
					l0.3-0.8l0.3-0.8l0.3-0.8l0.3-0.8l0.3-0.8l0.2-0.9l0.2-0.9l0.2-0.9l0.2-0.9L248,15l0.2-0.9l0.2-0.9l0.1-0.9l0.8-5.5l1.8,5.5
					l0.2,0.7l0,0L251.5,13.7z M42.3,124.1l-0.7-0.1l-0.4,0l-0.3,0l-0.5-0.1l-0.5-0.1l-0.5-0.1l-0.5-0.1l4.8,0.7l-0.7-0.1l0,0
					L42.3,124.1z M140.6,111.1l0.1,0.1l0,0.2l0.1,0.5l0.1,0.5l0.1,0.5l-1.1-3.3l0.2,0.5l0.2,0.5l0,0L140.6,111.1z M230.3,106.3
					l-0.1,0.1l-0.1,0.1l-0.3,0.4l-0.3,0.4l-0.3,0.4l2.3-2.6l-0.4,0.4l-0.4,0.4l0,0L230.3,106.3z M183,94.2L183,94.2l0,0.1l-0.1,0.5
					l-0.1,0.5l-0.1,0.5l0.5-3.2l-0.1,0.5l-0.1,0.5l0,0L183,94.2z M319.4,92.6l0.4-0.6l0.2-0.3l0.2-0.2l0.3-0.4l0.3-0.4l0.3-0.4
					l0.3-0.4l-2.9,3.9l0.4-0.6l0,0L319.4,92.6z M74.1,71.5l1.1,0.5l1,0.6l0.9,0.7l0.8,0.8l0.7,0.9l0.6,1l0.5,1.1l0.4,1.1l0.3,1.2
					l0.1,1.2l0,1.3l-0.1,1.7l-0.1,1.1l-0.2,1.1l-0.3,1l-0.4,1l-0.5,0.9l-0.6,0.8l-0.7,0.8l-0.8,0.7L76,91.8l-0.9,0.5l-0.9,0.5
					l-1,0.4l-1,0.3l-1.1,0.2l-1.1,0l-1.2-0.1l-1.2-0.2l-1.1-0.3l-1.1-0.4l-1-0.5l-1-0.6l-0.9-0.7l-0.8-0.8L60.9,89l-0.6-1l-0.5-1
					L59.3,86L59,84.8l-0.2-1.2l-0.1-1.2v-1.6l0-1l0.2-1l0.2-1l0.3-0.9l0.4-0.9l0.5-0.8l0.6-0.8l0.6-0.7l0.7-0.6l0.8-0.6l0.8-0.5
					l0.9-0.4l0.9-0.3l1-0.2l1-0.1l1.5-0.1l1.3,0l1.2,0.1l1.2,0.3l0,0L74.1,71.5z M298.3,57.1l1.1,0.5l1,0.6l0.9,0.7l0.8,0.8l0.7,0.9
					l0.6,1l0.5,1.1l0.4,1.1l0.3,1.2l0.1,1.2l0,1.3l-0.1,1.7l-0.1,1.1l-0.2,1.1l-0.3,1l-0.4,1l-0.5,0.9l-0.6,0.8l-0.7,0.8l-0.8,0.7
					l-0.8,0.6l-0.9,0.6l-0.9,0.5l-1,0.4l-1,0.3l-1.1,0.2l-1.1,0l-1.2-0.1l-1.2-0.2l-1.1-0.3l-1.1-0.4l-1-0.5l-1-0.6l-0.9-0.7
					l-0.8-0.8l-0.7-0.9l-0.6-1l-0.5-1l-0.4-1.1l-0.3-1.1l-0.2-1.2l-0.1-1.2v-1.6l0-1l0.1-1l0.2-1l0.3-0.9l0.4-0.9l0.5-0.8l0.6-0.8
					l0.6-0.7l0.7-0.6l0.8-0.6l0.8-0.5l0.9-0.4l0.9-0.3l1-0.2l1-0.1l1.5-0.1l1.3,0l1.2,0.1l1.2,0.3l0,0L298.3,57.1z M94.5,57.2
					l-0.6-0.4l-0.3-0.2l-0.2-0.2L93,56l-0.4-0.3l-0.4-0.3L91.8,55l3.8,3.1L95,57.6l0,0L94.5,57.2z M142.7,23.3l1.1,0.5l1,0.6
					l0.9,0.7l0.8,0.8l0.7,0.9l0.6,1l0.5,1.1l0.4,1.1l0.3,1.2l0.1,1.2l0,1.3l-0.1,1.7l-0.1,1.1l-0.2,1.1l-0.3,1l-0.4,1l-0.5,0.9
					l-0.6,0.8l-0.7,0.8l-0.8,0.7l-0.8,0.6l-0.9,0.5l-0.9,0.5l-1,0.4l-1,0.3l-1.1,0.2l-1.1,0l-1.2-0.1l-1.2-0.2l-1.1-0.3l-1.1-0.4
					l-1-0.5l-1-0.6l-0.9-0.7l-0.8-0.8l-0.7-0.9l-0.6-1l-0.5-1l-0.4-1.1l-0.3-1.1l-0.2-1.2l-0.1-1.2v-1.6l0.1-1l0.1-1l0.2-1l0.3-0.9
					l0.4-0.9l0.5-0.8l0.6-0.8l0.6-0.7l0.7-0.6l0.8-0.6l0.8-0.5l0.9-0.4l0.9-0.3l1-0.2l1-0.1l1.5-0.1l1.3,0l1.2,0.1l1.2,0.3l0,0
					L142.7,23.3z M254.5,39.1l0-0.7l0-0.2l0-0.1l0-0.5l0-0.5l0-0.5l0-0.5l-0.3,4.5l0-0.7l0,0L254.5,39.1z M223.1,18.4l1.1,0.5l1,0.6
					l0.9,0.7l0.8,0.8l0.7,0.9l0.6,1l0.5,1.1l0.4,1.1l0.3,1.2l0.1,1.2l0,1.3l-0.1,1.7l-0.1,1.1l-0.2,1.1l-0.3,1l-0.4,1l-0.5,0.9
					l-0.6,0.8l-0.7,0.8l-0.8,0.7l-0.8,0.6l-0.9,0.5l-0.9,0.5l-1,0.4l-1,0.3l-1.1,0.2l-1.1,0l-1.2-0.1l-1.2-0.2l-1.1-0.3l-1.1-0.4
					l-1-0.5l-1-0.6l-0.9-0.7l-0.8-0.8l-0.7-0.9l-0.6-1l-0.5-1l-0.4-1.1l-0.3-1.1l-0.2-1.2l-0.1-1.2v-1.6l0-1l0.1-1l0.2-1l0.3-0.9
					l0.4-0.9l0.5-0.8l0.6-0.8l0.6-0.7l0.7-0.6l0.8-0.6l0.8-0.5l0.9-0.4l0.9-0.3l1-0.2l1-0.1l1.5-0.1l1.3,0l1.2,0.1l1.2,0.3l0,0
					L223.1,18.4z M175,27.8l-0.3-0.7l-0.2-0.4l-0.1-0.2l-0.2-0.5l-0.2-0.5l-0.2-0.5l-0.2-0.5l1.8,4.5l-0.3-0.7l0,0L175,27.8z"/>
			</g>
		</g>
	</g>
</g>
</svg>
